<?xml version="1.0" encoding="UTF-8"?>
<svg width="38px" height="38px" viewBox="0 0 38 38" version="1.1" xmlns="http://www.w3.org/2000/svg" xmlns:xlink="http://www.w3.org/1999/xlink">
    <!-- Generator: Sketch 44 (41411) - http://www.bohemiancoding.com/sketch -->
    <title>icon_design_color</title>
    <desc>Created with Sketch.</desc>
    <defs></defs>
    <g id="Page-1" stroke="none" stroke-width="1" fill="none" fill-rule="evenodd">
        <g id="Chapter-Design" transform="translate(-1145.000000, -61.000000)">
            <g id="icon_design_color" transform="translate(1144.000000, 60.000000)">
                <rect id="Rectangle-2" stroke="#E28633" stroke-width="2.33766234" transform="translate(20.394642, 20.140027) rotate(-315.000000) translate(-20.394642, -20.140027) " x="13.8711658" y="2.08807928" width="13.046953" height="36.1038961" rx="2.33766234"></rect>
                <path d="M9.53117253,22.5528382 L13.3858639,26.4575905 C13.7864016,26.86333 14.4358016,26.86333 14.8363394,26.4575905 C15.2368771,26.051851 15.2368771,25.3940173 14.8363394,24.9882777 L10.981648,21.0835254 C10.5811102,20.6777859 9.93171027,20.6777859 9.53117253,21.0835254 C9.1306348,21.4892649 9.1306348,22.1470987 9.53117253,22.5528382 Z" id="Line" fill="#E28633" fill-rule="nonzero"></path>
                <path d="M24.9157879,6.96842263 L28.7704793,10.8731749 C29.171017,11.2789145 29.820417,11.2789145 30.2209547,10.8731749 C30.6214925,10.4674354 30.6214925,9.80960167 30.2209547,9.40386214 L26.3662634,5.49910984 C25.9657256,5.09337031 25.3163257,5.09337031 24.9157879,5.49910984 C24.5152502,5.90484936 24.5152502,6.56268311 24.9157879,6.96842263 Z" id="Line-Copy-2" fill="#E28633" fill-rule="nonzero"></path>
                <path d="M5.94142894,25.6697213 L9.79612032,29.5744736 C10.1966581,29.9802132 10.846058,29.9802132 11.2465958,29.5744736 C11.6471335,29.1687341 11.6471335,28.5109004 11.2465958,28.1051608 L7.39190439,24.2004085 C6.99136666,23.794669 6.34196668,23.794669 5.94142894,24.2004085 C5.54089121,24.6061481 5.54089121,25.2639818 5.94142894,25.6697213 Z" id="Line-Copy" fill="#E28633" fill-rule="nonzero"></path>
                <path d="M21.3260443,10.0853057 L25.1807357,13.9900581 C25.5812734,14.3957976 26.2306734,14.3957976 26.6312112,13.9900581 C27.0317489,13.5843185 27.0317489,12.9264848 26.6312112,12.5207453 L22.7765198,8.61599295 C22.375982,8.21025343 21.7265821,8.21025343 21.3260443,8.61599295 C20.9255066,9.02173248 20.9255066,9.67956622 21.3260443,10.0853057 Z" id="Line-Copy-3" fill="#E28633" fill-rule="nonzero"></path>
                <g id="Pencil" fill="#E28633">
                    <path d="M13.2385713,-1.00462835 C15.3314603,-1.75064401 16.9001454,-2.12365184 17.9446265,-2.12365184 C18.985628,-2.12365184 20.4530652,-1.75312517 22.3469381,-1.01207182 L22.346938,-1.0120718 C22.570974,-0.92440878 22.7183998,-0.708412589 22.7183998,-0.467836358 L22.7183998,36.654247 L22.7183997,36.654247 C22.7183997,36.9770108 22.456748,37.2386626 22.1339842,37.2386626 C22.0545908,37.2386626 21.9760299,37.2224858 21.9030954,37.1911194 C21.2550792,36.9124317 20.7467951,36.7730879 20.3782431,36.7730879 C19.9129645,36.7730879 19.2064076,36.9951714 18.2585724,37.4393385 L18.2585724,37.4393385 C18.0803626,37.5228498 17.8720878,37.511056 17.7044448,37.4079602 C16.8900865,36.9071528 16.2177401,36.6567491 15.6874055,36.6567491 C15.2296111,36.6567491 14.5537926,36.8433363 13.6599501,37.2165107 L13.6599501,37.2165106 C13.3621019,37.3408606 13.0198426,37.2002126 12.8954926,36.9023643 C12.8657128,36.8310345 12.8503789,36.7545055 12.8503789,36.6772088 L12.8503789,-0.454139482 L12.8503789,-0.454139482 C12.8503789,-0.701252734 13.0058036,-0.921657692 13.2385713,-1.00462835 Z" id="Rectangle-2-Copy" transform="translate(17.784389, 17.700015) rotate(-45.000000) translate(-17.784389, -17.700015) "></path>
                    <path d="M36.4247886,33.4832855 L38.4247847,37.5352256 L38.4247847,37.5352256 C38.5676429,37.8246527 38.4488254,38.1750891 38.1593984,38.3179473 C38.132745,38.3311032 38.1051268,38.3422065 38.0767841,38.3511605 C37.1339231,38.6490319 36.4009326,38.7979676 35.8778126,38.7979676 C35.3565123,38.7979676 34.6370396,38.6500663 33.7193945,38.3542637 L33.7193945,38.3542637 C33.4121966,38.2552386 33.2434393,37.9259298 33.3424644,37.618732 C33.3512346,37.591525 33.3619891,37.5649982 33.3746413,37.5393651 L35.3766806,33.4832855 L35.3766806,33.4832855 C35.5195388,33.1938585 35.8699752,33.075041 36.1594023,33.2178992 C36.2746363,33.2747775 36.3679103,33.3680515 36.4247886,33.4832855 Z" id="Triangle-4" transform="translate(35.900018, 35.846438) rotate(-225.000000) translate(-35.900018, -35.846438) "></path>
                </g>
            </g>
        </g>
    </g>
</svg>