<?xml version="1.0" encoding="UTF-8"?>
<svg width="40px" height="30px" viewBox="0 0 40 30" version="1.1" xmlns="http://www.w3.org/2000/svg" xmlns:xlink="http://www.w3.org/1999/xlink">
    <!-- Generator: Sketch 44 (41411) - http://www.bohemiancoding.com/sketch -->
    <title>icon_production_color</title>
    <desc>Created with Sketch.</desc>
    <defs></defs>
    <g id="Page-1" stroke="none" stroke-width="1" fill="none" fill-rule="evenodd">
        <g id="Chapter-Design" transform="translate(-1149.000000, -258.000000)" fill="#E55749">
            <g id="icon_production_color" transform="translate(1149.000000, 258.432432)">
                <path d="M13.9191289,24.6226746 L21.0846125,24.6226746 L21.0846125,24.6226746 C21.291577,24.6226746 21.465313,24.7785706 21.4876499,24.9843261 C21.5762073,25.8000676 21.7104386,26.4107678 21.8903437,26.8164268 C22.0276878,27.1261172 22.2686952,27.4900275 22.6133658,27.9081578 L22.6133658,27.9081578 C22.7557809,28.0809259 22.7311749,28.3364323 22.5584069,28.4788474 C22.4858004,28.5386979 22.3946361,28.5714286 22.3005415,28.5714286 L12.9516732,28.5714286 L12.9516732,28.5714286 C12.727774,28.5714286 12.5462678,28.3899224 12.5462678,28.1660232 C12.5462678,28.0985766 12.5630953,28.0321956 12.5952259,27.9728941 C12.8616798,27.4811153 13.0413399,27.0956262 13.1342062,26.8164268 C13.2479517,26.4744549 13.3761497,25.8570203 13.5188002,24.964123 L13.5188003,24.964123 C13.5502277,24.7674078 13.7199191,24.6226746 13.9191289,24.6226746 Z" id="Rectangle-3"></path>
                <path d="M24.5903795,17.9674098 L24.5903795,17.9674098 L24.5903795,17.9674098 C25.0620595,18.3742555 25.7721895,18.3304641 26.1903079,17.8687473 L37.6809442,5.17994955 L37.6809442,5.17994955 C38.3837842,4.40382243 38.3243733,3.20488269 37.5482462,2.50204269 C37.5087909,2.46631305 37.4678484,2.43226088 37.4255275,2.39997669 L37.4255275,2.39997669 L37.4255275,2.39997669 C36.5279469,1.7152634 35.2452442,1.88782651 34.5605309,2.78540717 C34.5567945,2.79030521 34.5530802,2.79522011 34.5493882,2.80015172 L24.4134948,16.3392627 L24.4134948,16.3392627 C24.0355129,16.8441554 24.1127911,17.5554678 24.5903795,17.9674098 Z" id="Path-3" transform="translate(31.172511, 10.113465) rotate(14.000000) translate(-31.172511, -10.113465) "></path>
                <path d="M16.1988543,19.4070686 C20.3739965,19.8058146 22.5566574,19.3680446 22.746837,18.0937586 C23.0321063,16.1823296 20.0418175,15.3202951 19.3439614,16.1823296 C18.6461052,17.0443642 18.7247652,18.2697356 17.8411638,18.7227534 C17.2520961,19.0247652 16.7046596,19.2528703 16.1988543,19.4070686 Z" id="Path-2"></path>
                <path d="M1.93050193,1.98315198 L1.93050193,21.8146718 L33.094048,21.8146718 L33.094048,1.98315198 L1.93050193,1.98315198 Z M1.54440154,0.0526500527 L33.4801484,0.0526500527 C34.3330978,0.0526500527 35.0245499,0.744102176 35.0245499,1.5970516 L35.0245499,22.2007722 C35.0245499,23.0537216 34.3330978,23.7451737 33.4801484,23.7451737 L1.54440154,23.7451737 C0.691452124,23.7451737 1.04490235e-15,23.0537216 -1.33226763e-15,22.2007722 L-5.70971841e-16,1.5970516 C-4.21662756e-16,0.744102176 0.691452124,0.0526500527 1.54440154,0.0526500527 Z" id="Rectangle-8" fill-rule="nonzero"></path>
                <path d="M16.0661935,11.81258 C16.091399,11.6105058 16.110302,11.408431 16.110302,11.1937276 C16.110302,10.9790242 16.0913978,10.7769494 16.0661935,10.5748753 L17.395756,9.53292978 C17.5154799,9.43820768 17.5469856,9.26770718 17.4713714,9.1287809 L16.2111229,6.9438522 C16.1355075,6.80492624 15.9653749,6.7544074 15.8267468,6.80492624 L14.2577376,7.43640851 C13.9300727,7.18381555 13.5772035,6.97542644 13.1928273,6.81755587 L12.95338,5.14412778 C12.9344759,4.99257173 12.8021498,4.87890488 12.6446187,4.87890488 L10.1241218,4.87890488 C9.96659077,4.87890488 9.83426465,4.99257173 9.81536109,5.14412748 L9.57591381,6.81755557 C9.19153825,6.97542614 8.83866842,7.19013021 8.51100383,7.43640822 L6.94199435,6.80492594 C6.79706577,6.74809243 6.63323362,6.80492594 6.55761849,6.94385191 L5.29737003,9.1287803 C5.21545382,9.26770657 5.25326138,9.43820647 5.37298487,9.53292918 L6.70254707,10.5748753 C6.67734213,10.7769494 6.65843827,10.9853385 6.65843827,11.1937276 C6.65843827,11.4021167 6.67734213,11.6105058 6.70254707,11.81258 L5.37298502,12.8545255 C5.25326138,12.9492475 5.2217552,13.1197481 5.29737003,13.2586744 L6.55761849,15.443603 C6.63323333,15.5825287 6.80336685,15.6330472 6.94199435,15.5825287 L8.51100354,14.9510464 C8.83866812,15.2036391 9.19153765,15.4120282 9.57591321,15.5698987 L9.81536049,17.2433266 C9.83426405,17.3948821 9.96659016,17.5085491 10.1241212,17.5085491 L12.6446181,17.5085491 C12.8021492,17.5085491 12.9344752,17.3948821 12.9533788,17.2433266 L13.1928261,15.5698987 C13.5772016,15.4120282 13.9300715,15.1973241 14.2577364,14.9510464 L15.8267456,15.5825287 C15.9716738,15.6393622 16.1355063,15.5825287 16.2111217,15.443603 L17.4713702,13.2586744 C17.5469856,13.1197481 17.5154787,12.9492482 17.3957548,12.8545255 L16.0661922,11.81258 L16.0661935,11.81258 Z M11.3843703,14.2725013 C9.69029723,14.2725013 8.31221772,12.8914517 8.31221772,11.1937276 C8.31221772,9.49600351 9.69029723,8.11495396 11.3843703,8.11495396 C13.0784432,8.11495396 14.4565228,9.49600351 14.4565228,11.1937276 C14.4565228,12.8914517 13.0784432,14.2725013 11.3843703,14.2725013 Z" id="Fill-2"></path>
            </g>
        </g>
    </g>
</svg>