<?xml version="1.0" encoding="UTF-8"?>
<svg width="31px" height="40px" viewBox="0 0 31 40" version="1.1" xmlns="http://www.w3.org/2000/svg" xmlns:xlink="http://www.w3.org/1999/xlink">
    <!-- Generator: Sketch 44 (41411) - http://www.bohemiancoding.com/sketch -->
    <title>icon_research copy</title>
    <desc>Created with Sketch.</desc>
    <defs></defs>
    <g id="Page-1" stroke="none" stroke-width="1" fill="none" fill-rule="evenodd">
        <g id="Artboard-Copy" transform="translate(-105.000000, -186.000000)" fill="#FFFFFF">
            <g id="icon_research-copy" transform="translate(105.000000, 186.000000)">
                <path d="M13.9237288,26.247619 C20.51504,26.247619 25.8583535,20.8238686 25.8583535,14.1333333 C25.8583535,7.44279808 20.51504,2.01904762 13.9237288,2.01904762 C7.3324176,2.01904762 1.98910412,7.44279808 1.98910412,14.1333333 C1.98910412,20.8238686 7.3324176,26.247619 13.9237288,26.247619 Z M13.9237288,28.2666667 C6.23386573,28.2666667 0,21.9389578 0,14.1333333 C0,6.32770887 6.23386573,0 13.9237288,0 C21.6135919,0 27.8474576,6.32770887 27.8474576,14.1333333 C27.8474576,21.9389578 21.6135919,28.2666667 13.9237288,28.2666667 Z" id="Oval-2" fill-rule="nonzero"></path>
                <rect id="Combined-Shape" x="23.1922191" y="24.1464756" width="4.33694577" height="16.3493499" rx="2.16847288"></rect>
                <rect id="Rectangle-7" x="7.3559322" y="8.53333333" width="11.4606301" height="2.05290982" rx="1.02645491"></rect>
                <rect id="Rectangle-7-Copy" x="8.40677966" y="13.3333333" width="14.1572489" height="2.05290982" rx="1.02645491"></rect>
                <rect id="Rectangle-7-Copy-2" x="5.77966102" y="18.1333333" width="14.1572489" height="2.05290982" rx="1.02645491"></rect>
            </g>
        </g>
    </g>
</svg>