<?xml version="1.0" encoding="UTF-8"?>
<svg width="42px" height="30px" viewBox="0 0 42 30" version="1.1" xmlns="http://www.w3.org/2000/svg" xmlns:xlink="http://www.w3.org/1999/xlink">
    <!-- Generator: Sketch 44 (41411) - http://www.bohemiancoding.com/sketch -->
    <title>icon_production copy</title>
    <desc>Created with Sketch.</desc>
    <defs></defs>
    <g id="Page-1" stroke="none" stroke-width="1" fill="none" fill-rule="evenodd">
        <g id="Artboard-Copy" transform="translate(-101.000000, -625.000000)" fill="#FFFFFF">
            <g id="icon_production-copy" transform="translate(101.000000, 625.000000)">
                <path d="M14.597793,25.8538084 L22.1570423,25.8538084 L22.1570423,25.8538083 C22.3641808,25.8538083 22.5380043,26.0099591 22.5601286,26.2159127 C22.6530893,27.0812771 22.7946667,27.7283889 22.9848609,28.1572482 C23.1325551,28.4902763 23.3944166,28.8830184 23.7704454,29.3354746 L23.7704454,29.3354746 C23.9135534,29.5076692 23.8899741,29.7632724 23.7177795,29.9063804 C23.6449839,29.9668797 23.5533135,30 23.4586596,30 L13.5651864,30 L13.5651864,30 C13.3412871,30 13.159781,29.8184938 13.159781,29.5945946 C13.159781,29.5269126 13.1767261,29.4603076 13.2090708,29.4008545 C13.4976205,28.8704683 13.6915691,28.4559328 13.7909165,28.1572482 C13.9110664,27.7960218 14.0465741,27.1420762 14.1974397,26.1954113 L14.1974397,26.1954113 C14.2288006,25.9986255 14.398524,25.8538084 14.597793,25.8538084 Z" id="Rectangle-3"></path>
                <path d="M25.8198985,18.8657803 L25.8198985,18.8657803 L25.8198985,18.8657803 C26.3151624,19.2929683 27.060799,19.2469873 27.4998233,18.7621846 L39.5649915,5.43894703 L39.5649915,5.43894703 C40.3029735,4.62401355 40.240592,3.36512682 39.4256585,2.62714483 C39.3842304,2.5896287 39.3412408,2.55387392 39.2968039,2.51997552 L39.2968039,2.51997552 L39.2968039,2.51997552 C38.3543442,1.80102657 37.0075064,1.98221783 36.2885574,2.92467753 C36.2846342,2.92982047 36.2807342,2.93498111 36.2768576,2.94015931 L25.6341696,17.1562258 L25.6341696,17.1562258 C25.2372886,17.6863631 25.3184307,18.4332412 25.8198985,18.8657803 Z" id="Path-3" transform="translate(32.731137, 10.619139) rotate(14.000000) translate(-32.731137, -10.619139) "></path>
                <path d="M17.0087971,20.377422 C21.3926963,20.7961053 23.6844902,20.3364468 23.8841788,18.9984465 C24.1837116,16.9914461 21.0439084,16.0863099 20.3111594,16.9914461 C19.5784105,17.8965824 19.6610035,19.1832224 18.7332219,19.6588911 C18.1147009,19.9760035 17.5398926,20.2155138 17.0087971,20.377422 Z" id="Path-2"></path>
                <path d="M2.02702703,2.08230958 L2.02702703,22.9054054 L34.7487504,22.9054054 L34.7487504,2.08230958 L2.02702703,2.08230958 Z M1.62162162,0.0552825553 L35.1541558,0.0552825553 C36.0497527,0.0552825553 36.7757774,0.781307285 36.7757774,1.67690418 L36.7757774,23.3108108 C36.7757774,24.2064077 36.0497527,24.9324324 35.1541558,24.9324324 L1.62162162,24.9324324 C0.72602473,24.9324324 1.16376085e-15,24.2064077 -1.33226763e-15,23.3108108 L-5.32907052e-16,1.67690418 C-3.76132513e-16,0.781307285 0.72602473,0.0552825553 1.62162162,0.0552825553 Z" id="Rectangle-8" fill-rule="nonzero"></path>
                <path d="M16.8695031,12.4032089 C16.895969,12.1910311 16.9158171,11.9788526 16.9158171,11.753414 C16.9158171,11.5279754 16.8959677,11.3157969 16.8695031,11.103619 L18.2655438,10.0095763 C18.3912539,9.91011806 18.4243349,9.73109253 18.34494,9.58521995 L17.0216791,7.29104482 C16.9422829,7.14517255 16.7636436,7.09212777 16.6180841,7.14517255 L14.9706244,7.80822894 C14.6265764,7.54300632 14.2560636,7.32419776 13.8524687,7.15843366 L13.601049,5.40133417 C13.5811997,5.24220031 13.4422573,5.12285012 13.2768497,5.12285012 L10.6303279,5.12285012 C10.4649203,5.12285012 10.3259779,5.24220031 10.3061291,5.40133385 L10.0547095,7.15843335 C9.65111516,7.32419745 9.28060184,7.54963672 8.93655402,7.80822863 L7.28909407,7.14517224 C7.13691906,7.08549706 6.9648953,7.14517224 6.88549941,7.2910445 L5.56223854,9.58521932 C5.47622651,9.7310919 5.51592445,9.9101168 5.64163412,10.0095756 L7.03767443,11.103619 C7.01120924,11.3157969 6.99136018,11.5346054 6.99136018,11.753414 C6.99136018,11.9722226 7.01120924,12.1910311 7.03767443,12.4032089 L5.64163427,13.4972517 C5.51592445,13.5967099 5.48284296,13.7757355 5.56223854,13.9216081 L6.88549941,16.2157832 C6.96489499,16.3616551 7.1435352,16.4146996 7.28909407,16.3616551 L8.93655371,15.6985987 C9.28060153,15.963821 9.65111453,16.1826296 10.0547089,16.3483937 L10.3061285,18.1054929 C10.3259772,18.2646262 10.4649197,18.3839766 10.6303273,18.3839766 L13.276849,18.3839766 C13.4422566,18.3839766 13.581199,18.2646262 13.6010478,18.1054929 L13.8524674,16.3483937 C14.2560617,16.1826296 14.6265751,15.9571903 14.9706232,15.6985987 L16.6180829,16.3616551 C16.7702575,16.4213303 16.9422816,16.3616551 17.0216778,16.2157832 L18.3449387,13.9216081 C18.4243349,13.7757355 18.3912526,13.5967106 18.2655425,13.4972517 L16.8695018,12.4032089 L16.8695031,12.4032089 Z M11.9535888,14.9861264 C10.1748121,14.9861264 8.72782861,13.5360243 8.72782861,11.753414 C8.72782861,9.97080369 10.1748121,8.52070165 11.9535888,8.52070165 C13.7323654,8.52070165 15.179349,9.97080369 15.179349,11.753414 C15.179349,13.5360243 13.7323654,14.9861264 11.9535888,14.9861264 Z" id="Fill-2"></path>
            </g>
        </g>
    </g>
</svg>