<?xml version="1.0" encoding="UTF-8"?>
<svg width="40px" height="28px" viewBox="0 0 40 28" version="1.1" xmlns="http://www.w3.org/2000/svg" xmlns:xlink="http://www.w3.org/1999/xlink">
    <!-- Generator: Sketch 44 (41411) - http://www.bohemiancoding.com/sketch -->
    <title>icon_discover_color</title>
    <desc>Created with Sketch.</desc>
    <defs></defs>
    <g id="Page-1" stroke="none" stroke-width="1" fill="none" fill-rule="evenodd">
        <g id="Chapter-Design" transform="translate(-1144.000000, -377.000000)" fill="#3ED17F">
            <g id="icon_discover_color" transform="translate(1144.000000, 375.000000)">
                <path d="M9.47368421,27.2502883 C13.5839284,27.2502883 16.9239546,23.8940882 16.9239546,19.744272 C16.9239546,15.5944558 13.5839284,12.2382558 9.47368421,12.2382558 C5.36344005,12.2382558 2.02341379,15.5944558 2.02341379,19.744272 C2.02341379,23.8940882 5.36344005,27.2502883 9.47368421,27.2502883 Z M9.47368421,29.2638317 C4.2415129,29.2638317 0,25.0017797 0,19.744272 C0,14.4867644 4.2415129,10.2247123 9.47368421,10.2247123 C14.7058555,10.2247123 18.9473684,14.4867644 18.9473684,19.744272 C18.9473684,25.0017797 14.7058555,29.2638317 9.47368421,29.2638317 Z" id="Oval-3" fill-rule="nonzero"></path>
                <path d="M30.5263158,27.2502883 C34.6365599,27.2502883 37.9765862,23.8940882 37.9765862,19.744272 C37.9765862,15.5944558 34.6365599,12.2382558 30.5263158,12.2382558 C26.4160716,12.2382558 23.0760454,15.5944558 23.0760454,19.744272 C23.0760454,23.8940882 26.4160716,27.2502883 30.5263158,27.2502883 Z M30.5263158,29.2638317 C25.2941445,29.2638317 21.0526316,25.0017797 21.0526316,19.744272 C21.0526316,14.4867644 25.2941445,10.2247123 30.5263158,10.2247123 C35.7584871,10.2247123 40,14.4867644 40,19.744272 C40,25.0017797 35.7584871,29.2638317 30.5263158,29.2638317 Z" id="Oval-3-Copy" fill-rule="nonzero"></path>
                <rect id="Rectangle-11" x="17.5438596" y="9.51955972" width="4.9122807" height="13.3978989" rx="2.45614035"></rect>
                <path d="M28.6651498,3.14949268 L28.8949537,3.14949268 L28.8949537,3.14949268 C31.4151253,3.14949268 33.5173097,5.07566743 33.7371159,7.58623505 L34.792743,19.6433208 L29.1762381,12.7981429 L19.8203838,12.1248839 L22.6784485,7.9318793 L24.3438225,7.3722799 L24.3438225,7.3722799 L24.3438225,7.3722799 C24.3979838,5.0245088 26.3167541,3.14949268 28.6651498,3.14949268 Z" id="Rectangle-11-Copy" transform="translate(27.306563, 11.396407) rotate(-34.000000) translate(-27.306563, -11.396407) "></path>
                <path d="M14.1218593,3.07168462 L14.3516632,3.07168462 L14.3516632,3.07168462 C16.8822292,3.07168462 19.0032763,4.98462402 19.26368,7.50175613 L20.5154342,19.6015486 L14.6329476,12.7203348 L5.27709328,12.0470758 L8.13515796,7.85407125 L9.80053195,7.29447184 L9.80053195,7.29447184 L9.80053195,7.29447184 C9.85469329,4.94670075 11.7734635,3.07168462 14.1218593,3.07168462 Z" id="Rectangle-11-Copy-2" transform="translate(12.896264, 11.336617) scale(-1, 1) rotate(-34.000000) translate(-12.896264, -11.336617) "></path>
                <path d="M35.518197,16.6214995 C37.3161451,20.6357869 36.2875569,23.6507404 32.4324324,25.66636 C33.7499169,23.8840155 34.5844712,22.4775103 34.9360953,21.4468447 C35.2877195,20.416179 35.4817534,18.8077306 35.518197,16.6214995 Z" id="Path-6"></path>
                <path d="M14.2569358,16.6214995 C16.0548838,20.6357869 15.0262956,23.6507404 11.1711712,25.66636 C12.4886556,23.8840155 13.3232099,22.4775103 13.6748341,21.4468447 C14.0264582,20.416179 14.2204921,18.8077306 14.2569358,16.6214995 Z" id="Path-6-Copy"></path>
            </g>
        </g>
    </g>
</svg>