<?xml version="1.0" encoding="UTF-8"?>
<svg width="39px" height="33px" viewBox="0 0 39 33" version="1.1" xmlns="http://www.w3.org/2000/svg" xmlns:xlink="http://www.w3.org/1999/xlink">
    <!-- Generator: Sketch 44 (41411) - http://www.bohemiancoding.com/sketch -->
    <title>icon_define_color</title>
    <desc>Created with Sketch.</desc>
    <defs></defs>
    <g id="Page-1" stroke="none" stroke-width="1" fill="none" fill-rule="evenodd">
        <g id="Chapter-Design" transform="translate(-1149.000000, -200.000000)" fill="#F0C830">
            <g id="icon_define_color" transform="translate(1149.000000, 200.000000)">
                <path d="M2.21035181,2.19138057 L2.21035181,30.2410519 L30.502855,30.2410519 L30.502855,2.19138057 L2.21035181,2.19138057 Z M2.21035181,0 L30.502855,0 C31.7235986,0 32.7132069,0.9811145 32.7132069,2.19138057 L32.7132069,30.2410519 C32.7132069,31.4513179 31.7235986,32.4324324 30.502855,32.4324324 L2.21035181,32.4324324 C0.989608216,32.4324324 0,31.4513179 0,30.2410519 L0,2.19138057 C0,0.9811145 0.989608216,0 2.21035181,0 Z" id="Rectangle-9" fill-rule="nonzero"></path>
                <rect id="Rectangle-10" x="6.18898508" y="7.45069394" width="2.65242218" height="2.62965668" rx="0.6"></rect>
                <rect id="Rectangle-10-Copy-3" x="11.4938294" y="7.45069394" width="15.4724627" height="2.62965668" rx="0.6"></rect>
                <rect id="Rectangle-10-Copy-4" x="11.4938294" y="12.7100073" width="15.4724627" height="2.62965668" rx="0.6"></rect>
                <rect id="Rectangle-10-Copy-5" x="11.4938294" y="17.9693207" width="15.4724627" height="2.62965668" rx="0.6"></rect>
                <rect id="Rectangle-10-Copy" x="6.18898508" y="12.7100073" width="2.65242218" height="2.62965668" rx="0.6"></rect>
                <rect id="Rectangle-10-Copy-2" x="6.18898508" y="17.9693207" width="2.65242218" height="2.62965668" rx="0.6"></rect>
                <path d="M27.3574634,7.58016127 C28.480709,7.19525289 29.3250867,7.00279871 29.8905964,7.00279871 C30.453522,7.00279871 31.2427411,7.19349804 32.2582537,7.57489671 L32.2582537,7.57489672 C32.4163855,7.63428666 32.5211213,7.78550154 32.5211213,7.95441813 L32.5211213,27.5942255 L32.5211213,27.5942255 C32.5211213,27.8181247 32.3396151,27.9996309 32.1157159,27.9996309 C32.0650297,27.9996309 32.0147929,27.990126 31.9676102,27.9716089 C31.6598318,27.85082 31.4144981,27.7904255 31.2316088,27.7904255 C30.9808585,27.7904255 30.6029353,27.9039537 30.0978393,28.13101 L30.0978393,28.13101 C29.9780567,28.184856 29.8396115,28.1773426 29.7263596,28.1108498 C29.2919259,27.8557836 28.9320675,27.7282505 28.6467845,27.7282505 C28.4130056,27.7282505 28.076047,27.8138915 27.6359089,27.9851737 L27.6359089,27.9851737 C27.4272526,28.0663735 27.1922778,27.9630495 27.1110781,27.7543932 C27.0928376,27.7075212 27.0834784,27.6576642 27.0834784,27.607368 L27.0834784,7.96367429 L27.0834784,7.96367429 C27.0834784,7.79042566 27.1935704,7.63632332 27.3574634,7.58016127 Z" id="Rectangle-2-Copy" transform="translate(29.802300, 17.582263) rotate(-315.000000) translate(-29.802300, -17.582263) "></path>
                <path d="M20.5556047,26.2140082 L21.532086,28.1327162 L21.532086,28.1327162 C21.6336392,28.3322602 21.554202,28.5763477 21.354658,28.677901 C21.3323854,28.6892361 21.3091123,28.6984875 21.2851361,28.705537 C20.8174103,28.8430572 20.4495874,28.9118173 20.1816674,28.9118173 C19.9151576,28.9118173 19.554651,28.8437791 19.1001477,28.7077027 L19.1001477,28.7077027 C18.8856555,28.6434846 18.7638342,28.4175453 18.8280523,28.2030531 C18.8350282,28.1797531 18.8440868,28.1571281 18.8551184,28.1354518 L19.832992,26.2140082 L19.832992,26.2140082 C19.9345452,26.0144642 20.1786327,25.935027 20.3781767,26.0365802 C20.4545945,26.0754712 20.5167136,26.1375903 20.5556047,26.2140082 Z" id="Triangle-4" transform="translate(20.193547, 27.475227) rotate(-495.000000) translate(-20.193547, -27.475227) "></path>
            </g>
        </g>
    </g>
</svg>