<?xml version="1.0" encoding="UTF-8"?>
<svg width="353px" height="389px" viewBox="0 0 353 389" version="1.1" xmlns="http://www.w3.org/2000/svg" xmlns:xlink="http://www.w3.org/1999/xlink">
    <!-- Generator: Sketch 44.1 (41455) - http://www.bohemiancoding.com/sketch -->
    <title>Group 7</title>
    <desc>Created with Sketch.</desc>
    <defs>
        <filter x="-2.1%" y="-1.3%" width="104.2%" height="105.2%" filterUnits="objectBoundingBox" id="filter-1">
            <feOffset dx="0" dy="5" in="SourceAlpha" result="shadowOffsetOuter1"></feOffset>
            <feGaussianBlur stdDeviation="1" in="shadowOffsetOuter1" result="shadowBlurOuter1"></feGaussianBlur>
            <feColorMatrix values="0 0 0 0 0   0 0 0 0 0   0 0 0 0 0  0 0 0 0.191944067 0" type="matrix" in="shadowBlurOuter1" result="shadowMatrixOuter1"></feColorMatrix>
            <feMerge>
                <feMergeNode in="shadowMatrixOuter1"></feMergeNode>
                <feMergeNode in="SourceGraphic"></feMergeNode>
            </feMerge>
        </filter>
        <linearGradient x1="44.8073%" y1="-3.69026469%" x2="44.8072993%" y2="98.3922388%" id="linearGradient-2">
            <stop stop-color="#FFFFFF" offset="0%"></stop>
            <stop stop-color="#F0F0F0" offset="100%"></stop>
        </linearGradient>
        <path d="M5.63914866,379.515574 C2.17496112,376.116749 0.442893339,371.149309 0.442893339,364.613106 L0.442893339,337.945532 L12.2079997,337.945532 L12.2079997,365.070638 C12.2079997,368.382314 12.9487583,370.931395 14.4302976,372.717957 C15.9118369,374.50452 18.0469645,375.397787 20.8357444,375.397787 C23.6245243,375.397787 25.7596519,374.50452 27.2411912,372.717957 C28.7227305,370.931395 29.4634891,368.382314 29.4634891,365.070638 L29.4634891,337.945532 L41.2939572,337.945532 L41.2939572,364.613106 C41.2939572,371.105735 39.5401024,376.062281 36.0323401,379.482894 C32.5245779,382.903506 27.4590967,384.613787 20.8357444,384.613787 C14.1688175,384.613787 9.10333619,382.9144 5.63914866,379.515574 Z M75.9211345,360.756766 L93.5687941,384.025532 L79.5160282,384.025532 L69.1235175,369.515234 L58.6656452,384.025532 L44.7436026,384.025532 L62.3259005,360.756766 L45.0704111,337.945532 L59.0578154,337.945532 L69.1235175,352.06366 L79.319943,337.945532 L93.2419856,337.945532 L75.9211345,360.756766 Z M151.286808,364.318979 C152.74656,366.258052 153.476425,368.665518 153.476425,371.541447 C153.476425,375.593893 152.158311,378.687649 149.522042,380.822809 C146.885774,382.957968 143.149301,384.025532 138.312511,384.025532 L119.880511,384.025532 L119.880511,337.945532 L137.658894,337.945532 C142.36496,337.945532 146.003391,338.991309 148.574298,341.082894 C151.145204,343.174479 152.430638,346.1593 152.430638,350.037447 C152.430638,352.521204 151.787921,354.656331 150.502468,356.442894 C149.217015,358.229456 147.419586,359.558464 145.110128,360.429957 C147.768183,361.083578 149.827056,362.379905 151.286808,364.318979 Z M123.867574,358.861277 L137.070638,358.861277 C140.774487,358.861277 143.585012,358.098731 145.502298,356.573617 C147.419584,355.048503 148.378213,352.848014 148.378213,349.972085 C148.378213,344.263801 144.609059,341.409702 137.070638,341.409702 L123.867574,341.409702 L123.867574,358.861277 Z M146.646128,378.371745 C148.498052,376.911993 149.424,374.678824 149.424,371.67217 C149.424,365.484565 145.633059,362.390809 138.051064,362.390809 L123.867574,362.390809 L123.867574,380.561362 L138.051064,380.561362 C141.929211,380.561362 144.794203,379.831497 146.646128,378.371745 Z M200.195518,384.025532 L194.90122,371.737532 L170.063773,371.737532 L164.769475,384.025532 L160.651688,384.025532 L180.652369,337.945532 L184.312624,337.945532 L204.313305,384.025532 L200.195518,384.025532 Z M171.567092,368.208 L193.397901,368.208 L182.482496,342.716936 L171.567092,368.208 Z M218.155461,383.077787 C215.366681,382.097357 212.882961,380.583159 210.704227,378.535149 L212.403631,375.332426 C214.71309,377.380436 217.033407,378.829272 219.364653,379.678979 C221.695898,380.528685 224.49553,380.953532 227.763631,380.953532 C231.641778,380.953532 234.65928,380.158306 236.816227,378.56783 C238.973174,376.977354 240.051631,374.744185 240.051631,371.868255 C240.051631,370.168843 239.528743,368.785367 238.48295,367.717787 C237.437158,366.650207 236.10815,365.822301 234.495887,365.234043 C232.883623,364.645784 230.726709,364.046641 228.025078,363.436596 C224.451954,362.652251 221.565174,361.846132 219.364653,361.018213 C217.164131,360.190294 215.301341,358.93754 213.776227,357.259915 C212.251113,355.582289 211.488567,353.327333 211.488567,350.494979 C211.488567,347.880498 212.163965,345.592861 213.51478,343.632 C214.865595,341.671139 216.771959,340.146048 219.233929,339.056681 C221.695899,337.967314 224.582679,337.422638 227.894355,337.422638 C231.031732,337.422638 233.940299,337.934633 236.620142,338.958638 C239.299985,339.982643 241.620302,341.475054 243.581163,343.435915 L241.881759,346.638638 C239.703025,344.677777 237.502536,343.250728 235.280227,342.357447 C233.057918,341.464166 230.595985,341.017532 227.894355,341.017532 C224.016208,341.017532 220.987812,341.845439 218.809078,343.501277 C216.630344,345.157115 215.540993,347.466538 215.540993,350.429617 C215.540993,353.000523 216.488728,354.906887 218.384227,356.148766 C220.279726,357.390645 223.05757,358.447315 226.717844,359.318809 L228.417248,359.710979 C231.946798,360.582472 234.735536,361.388592 236.783546,362.129362 C238.831556,362.870131 240.563624,364.01395 241.979801,365.560851 C243.395979,367.107752 244.104057,369.188412 244.104057,371.802894 C244.104057,374.330225 243.428659,376.552501 242.077844,378.469787 C240.727029,380.387073 238.820665,381.879484 236.358695,382.947064 C233.896725,384.014644 231.031733,384.548426 227.763631,384.548426 C224.146932,384.548426 220.944241,384.058218 218.155461,383.077787 Z M254.939575,384.025532 L254.939575,337.945532 L258.992,337.945532 L258.992,384.025532 L254.939575,384.025532 Z M280.742922,381.705191 C277.605545,379.809693 275.187186,377.086316 273.487773,373.534979 C271.78836,369.983642 270.938667,365.789641 270.938667,360.952851 C270.938667,356.116061 271.78836,351.92206 273.487773,348.370723 C275.187186,344.819386 277.605545,342.106903 280.742922,340.233191 C283.8803,338.35948 287.584092,337.422638 291.854412,337.422638 C295.035364,337.422638 297.954824,337.92374 300.61288,338.925957 C303.270935,339.928175 305.580359,341.431479 307.54122,343.435915 L305.841816,346.638638 C303.663081,344.634203 301.473486,343.19626 299.272965,342.324766 C297.072443,341.453272 294.621404,341.017532 291.919773,341.017532 C286.603662,341.017532 282.475022,342.760493 279.533731,346.246468 C276.592439,349.732443 275.121816,354.634522 275.121816,360.952851 C275.121816,367.314755 276.581546,372.238621 279.50105,375.724596 C282.420554,379.210571 286.560087,380.953532 291.919773,380.953532 C294.621404,380.953532 297.072443,380.517792 299.272965,379.646298 C301.473486,378.774804 303.663081,377.336861 305.841816,375.332426 L307.54122,378.535149 C305.580359,380.539584 303.270935,382.042889 300.61288,383.045106 C297.954824,384.047324 295.035364,384.548426 291.854412,384.548426 C287.584092,384.548426 283.8803,383.60069 280.742922,381.705191 Z M322.821334,383.077787 C320.032554,382.097357 317.548834,380.583159 315.3701,378.535149 L317.069504,375.332426 C319.378962,377.380436 321.699279,378.829272 324.030525,379.678979 C326.361771,380.528685 329.161402,380.953532 332.429504,380.953532 C336.307651,380.953532 339.325153,380.158306 341.4821,378.56783 C343.639046,376.977354 344.717504,374.744185 344.717504,371.868255 C344.717504,370.168843 344.194615,368.785367 343.148823,367.717787 C342.10303,366.650207 340.774022,365.822301 339.161759,365.234043 C337.549496,364.645784 335.392581,364.046641 332.690951,363.436596 C329.117826,362.652251 326.231047,361.846132 324.030525,361.018213 C321.830003,360.190294 319.967214,358.93754 318.4421,357.259915 C316.916985,355.582289 316.15444,353.327333 316.15444,350.494979 C316.15444,347.880498 316.829837,345.592861 318.180653,343.632 C319.531468,341.671139 321.437832,340.146048 323.899802,339.056681 C326.361771,337.967314 329.248551,337.422638 332.560227,337.422638 C335.697605,337.422638 338.606171,337.934633 341.286014,338.958638 C343.965858,339.982643 346.286175,341.475054 348.247036,343.435915 L346.547631,346.638638 C344.368897,344.677777 342.168408,343.250728 339.9461,342.357447 C337.723791,341.464166 335.261858,341.017532 332.560227,341.017532 C328.68208,341.017532 325.653685,341.845439 323.474951,343.501277 C321.296216,345.157115 320.206865,347.466538 320.206865,350.429617 C320.206865,353.000523 321.154601,354.906887 323.0501,356.148766 C324.945598,357.390645 327.723443,358.447315 331.383717,359.318809 L333.083121,359.710979 C336.61267,360.582472 339.401408,361.388592 341.449419,362.129362 C343.497429,362.870131 345.229497,364.01395 346.645674,365.560851 C348.061851,367.107752 348.769929,369.188412 348.769929,371.802894 C348.769929,374.330225 348.094532,376.552501 346.743717,378.469787 C345.392901,380.387073 343.486537,381.879484 341.024568,382.947064 C338.562598,384.014644 335.697605,384.548426 332.429504,384.548426 C328.812805,384.548426 325.610113,384.058218 322.821334,383.077787 Z" id="path-3"></path>
        <filter x="-1.1%" y="-4.2%" width="102.3%" height="117.0%" filterUnits="objectBoundingBox" id="filter-4">
            <feOffset dx="0" dy="2" in="SourceAlpha" result="shadowOffsetOuter1"></feOffset>
            <feGaussianBlur stdDeviation="1" in="shadowOffsetOuter1" result="shadowBlurOuter1"></feGaussianBlur>
            <feColorMatrix values="0 0 0 0 0   0 0 0 0 0   0 0 0 0 0  0 0 0 0.273890399 0" type="matrix" in="shadowBlurOuter1"></feColorMatrix>
        </filter>
    </defs>
    <g id="Page-1" stroke="none" stroke-width="1" fill="none" fill-rule="evenodd">
        <g id="Style-Guide-&amp;-Assets" transform="translate(-463.000000, -133.000000)">
            <g id="Group-7" transform="translate(465.000000, 133.000000)">
                <g id="icon_launch-copy" filter="url(#filter-1)" transform="translate(41.500000, 0.000000)">
                    <path d="M21.337623,183.08035 L21.337623,183.08035 C21.0636877,182.997198 20.8035482,182.87401 20.5656388,182.714781 C19.2323379,181.822422 18.8748836,180.018169 19.7672423,178.684868 L19.7672423,178.684868 C29.3448767,164.374626 37.0423749,155.189148 42.8597367,151.128436 C49.1079,146.767009 60.754109,143.035486 77.7983639,139.933866 C120.016983,86.0189858 165.858509,60.3237252 215.322942,62.848084 C219.863028,101.851613 196.264553,146.753855 144.527518,197.55481 C143.339037,213.029266 140.608935,224.452521 136.337211,231.824572 C132.381577,238.651122 123.931457,247.47899 110.986849,258.308176 C110.727418,258.52521 110.432077,258.695269 110.114136,258.810688 C108.606064,259.358148 106.939725,258.579418 106.392265,257.071345 L106.392265,257.071345 L94.4782807,224.252242 C86.2449122,227.662689 79.0613736,227.285594 72.9276648,223.120955 L61.8433579,234.784549 C60.7479616,235.937192 58.929415,235.994946 57.7630876,234.914132 L48.7431837,226.555547 C47.6126129,225.507867 47.4971293,223.759581 48.4800683,222.572292 L48.4800683,222.572292 L58.3569341,210.642063 C54.0107434,207.16934 52.7645063,201.349501 54.6182228,193.182544 L21.337623,183.08035 Z M135.259574,158.542553 C144.88578,158.542553 152.689362,151.226695 152.689362,142.202128 C152.689362,133.17756 144.88578,125.861702 135.259574,125.861702 C125.633369,125.861702 117.829787,133.17756 117.829787,142.202128 C117.829787,151.226695 125.633369,158.542553 135.259574,158.542553 Z M170.119149,117.146809 C176.135527,117.146809 181.012766,112.26957 181.012766,106.253191 C181.012766,100.236813 176.135527,95.3595745 170.119149,95.3595745 C164.10277,95.3595745 159.225532,100.236813 159.225532,106.253191 C159.225532,112.26957 164.10277,117.146809 170.119149,117.146809 Z" id="Combined-Shape" fill="url(#linearGradient-2)"></path>
                    <path d="M36.1977522,238.804991 L12.4933142,264.868905 C10.439335,267.127332 10.6352267,270.596247 12.9308504,272.616945 C15.2264742,274.637642 18.752524,274.444925 20.8065031,272.186498 L44.5109412,246.122584 C46.5649203,243.864158 46.3690286,240.395242 44.0734049,238.374545 C41.7777812,236.353847 38.2517313,236.546565 36.1977522,238.804991 Z" id="Line" fill="#9E63B5" fill-rule="nonzero"></path>
                    <path d="M25.1254118,210.328396 L1.42097373,236.392309 C-0.633005413,238.650736 -0.437113756,242.119651 1.85850999,244.140349 C4.15413373,246.161046 7.68018355,245.968329 9.73416269,243.709902 L33.4386007,217.645989 C35.4925799,215.387562 35.2966882,211.918647 33.0010645,209.897949 C30.7054407,207.877251 27.1793909,208.069969 25.1254118,210.328396 Z" id="Line-Copy-4" fill="#E55749" fill-rule="nonzero"></path>
                    <path d="M55.6254118,64.3283957 L31.9209737,90.3923091 C29.8669946,92.6507358 30.0628862,96.1196513 32.35851,98.1403489 C34.6541337,100.161046 38.1801836,99.9683289 40.2341627,97.7099022 L63.9386007,71.6459887 C65.9925799,69.3875621 65.7966882,65.9186465 63.5010645,63.897949 C61.2054407,61.8772515 57.6793909,62.069969 55.6254118,64.3283957 Z" id="Line-Copy-6" fill="#3ED17F" fill-rule="nonzero"></path>
                    <path d="M73.1254118,240.828396 L49.4209737,266.892309 C47.3669946,269.150736 47.5628862,272.619651 49.85851,274.640349 C52.1541337,276.661046 55.6801836,276.468329 57.7341627,274.209902 L81.4386007,248.145989 C83.4925799,245.887562 83.2966882,242.418647 81.0010645,240.397949 C78.7054407,238.377251 75.1793909,238.569969 73.1254118,240.828396 Z" id="Line-Copy-5" fill="#2BC3A6" fill-rule="nonzero"></path>
                    <path d="M255.125412,162.328396 L231.420974,188.392309 C229.366995,190.650736 229.562886,194.119651 231.85851,196.140349 C234.154134,198.161046 237.680184,197.968329 239.734163,195.709902 L263.438601,169.645989 C265.49258,167.387562 265.296688,163.918647 263.001064,161.897949 C260.705441,159.877251 257.179391,160.069969 255.125412,162.328396 Z" id="Line-Copy-7" fill="#F0C830" fill-rule="nonzero"></path>
                    <path d="M206.125412,1.82839566 L182.420974,27.8923091 C180.366995,30.1507358 180.562886,33.6196513 182.85851,35.6403489 C185.154134,37.6610464 188.680184,37.4683289 190.734163,35.2099022 L214.438601,9.14598872 C216.49258,6.88756208 216.296688,3.41864653 214.001064,1.39794901 C211.705441,-0.622748522 208.179391,-0.430030992 206.125412,1.82839566 Z" id="Line-Copy-8" fill="#E55749" fill-rule="nonzero"></path>
                </g>
                <g id="UX-BASICS">
                    <use fill="black" fill-opacity="1" filter="url(#filter-4)" xlink:href="#path-3"></use>
                    <use fill="#FFFFFF" fill-rule="evenodd" xlink:href="#path-3"></use>
                </g>
            </g>
        </g>
    </g>
</svg>