<?xml version="1.0" encoding="UTF-8"?>
<svg width="97px" height="14px" viewBox="0 0 97 14" version="1.1" xmlns="http://www.w3.org/2000/svg" xmlns:xlink="http://www.w3.org/1999/xlink">
    <!-- Generator: Sketch 44 (41411) - http://www.bohemiancoding.com/sketch -->
    <title>UX BASICS</title>
    <desc>Created with Sketch.</desc>
    <defs></defs>
    <g id="Page-1" stroke="none" stroke-width="1" fill="none" fill-rule="evenodd">
        <g id="Chapter-Design" transform="translate(-1116.000000, -805.000000)" fill="#1D2E40">
            <path d="M1117.44557,816.710065 C1116.48185,815.764527 1116,814.382608 1116,812.564266 L1116,805.145467 L1119.273,805.145467 L1119.273,812.691549 C1119.273,813.612842 1119.47908,814.321985 1119.89123,814.818999 C1120.30339,815.316012 1120.89737,815.564515 1121.6732,815.564515 C1122.44903,815.564515 1123.04301,815.316012 1123.45517,814.818999 C1123.86732,814.321985 1124.0734,813.612842 1124.0734,812.691549 L1124.0734,805.145467 L1127.36458,805.145467 L1127.36458,812.564266 C1127.36458,814.370485 1126.87667,815.749374 1125.90082,816.700973 C1124.92498,817.652572 1123.51579,818.128365 1121.6732,818.128365 C1119.81849,818.128365 1118.4093,817.655603 1117.44557,816.710065 Z M1136.99771,811.491449 L1141.90721,817.964715 L1137.99779,817.964715 L1135.10664,813.928015 L1132.19731,817.964715 L1128.32426,817.964715 L1133.21557,811.491449 L1128.41517,805.145467 L1132.30641,805.145467 L1135.10664,809.073066 L1137.94324,805.145467 L1141.81629,805.145467 L1136.99771,811.491449 Z M1157.9641,812.482441 C1158.37019,813.021882 1158.57324,813.691628 1158.57324,814.491699 C1158.57324,815.619071 1158.20654,816.47974 1157.47315,817.073732 C1156.73975,817.667723 1155.70028,817.964715 1154.35471,817.964715 L1149.22701,817.964715 L1149.22701,805.145467 L1154.17287,805.145467 C1155.48208,805.145467 1156.49427,805.436397 1157.20949,806.018267 C1157.9247,806.600136 1158.28231,807.4305 1158.28231,808.509383 C1158.28231,809.200353 1158.1035,809.794336 1157.7459,810.291349 C1157.38829,810.788363 1156.88825,811.158087 1156.24577,811.400532 C1156.98523,811.582367 1157.558,811.942999 1157.9641,812.482441 Z M1150.33619,810.964132 L1154.00922,810.964132 C1155.03962,810.964132 1155.82149,810.751996 1156.35487,810.327716 C1156.88825,809.903436 1157.15494,809.29127 1157.15494,808.491199 C1157.15494,806.903181 1156.10638,806.109183 1154.00922,806.109183 L1150.33619,806.109183 L1150.33619,810.964132 Z M1156.67308,816.391857 C1157.18828,815.98576 1157.44587,815.364503 1157.44587,814.528065 C1157.44587,812.806701 1156.39125,811.946032 1154.28197,811.946032 L1150.33619,811.946032 L1150.33619,817.000998 L1154.28197,817.000998 C1155.36086,817.000998 1156.15788,816.797953 1156.67308,816.391857 Z M1171.57028,817.964715 L1170.09743,814.546249 L1163.18776,814.546249 L1161.71491,817.964715 L1160.56936,817.964715 L1166.13346,805.145467 L1167.15173,805.145467 L1172.71583,817.964715 L1171.57028,817.964715 Z M1163.60598,813.564349 L1169.67921,813.564349 L1166.6426,806.47285 L1163.60598,813.564349 Z M1176.56665,817.701056 C1175.79083,817.428305 1175.09987,817.007062 1174.49375,816.437315 L1174.96652,815.546332 C1175.609,816.116079 1176.2545,816.519139 1176.90305,816.755523 C1177.55159,816.991908 1178.33043,817.110098 1179.2396,817.110098 C1180.31849,817.110098 1181.15794,816.88887 1181.758,816.446407 C1182.35805,816.003943 1182.65807,815.382686 1182.65807,814.582615 C1182.65807,814.109846 1182.5126,813.72497 1182.22167,813.427974 C1181.93074,813.130978 1181.56101,812.900658 1181.11249,812.737007 C1180.66396,812.573356 1180.06392,812.406678 1179.31234,812.236966 C1178.31831,812.018765 1177.51522,811.794506 1176.90305,811.564182 C1176.29087,811.333859 1175.77265,810.985349 1175.34837,810.518641 C1174.92409,810.051933 1174.71195,809.424614 1174.71195,808.636666 C1174.71195,807.909329 1174.89985,807.272919 1175.27564,806.727416 C1175.65143,806.181914 1176.18177,805.75764 1176.86668,805.454583 C1177.55159,805.151526 1178.35468,805 1179.27597,805 C1180.14877,805 1180.95792,805.142435 1181.70345,805.427308 C1182.44897,805.712182 1183.09447,806.127364 1183.63997,806.672866 L1183.1672,807.56385 C1182.56109,807.018347 1181.94892,806.621348 1181.33069,806.372841 C1180.71245,806.124335 1180.02755,806.000083 1179.27597,806.000083 C1178.19709,806.000083 1177.3546,806.230403 1176.74849,806.69105 C1176.14237,807.151696 1175.83932,807.794168 1175.83932,808.618483 C1175.83932,809.333697 1176.10298,809.864039 1176.6303,810.209524 C1177.15762,810.555009 1177.9304,810.84897 1178.94867,811.091416 L1179.42144,811.200516 C1180.40334,811.442961 1181.17916,811.66722 1181.7489,811.873299 C1182.31865,812.079378 1182.8005,812.397583 1183.19448,812.827924 C1183.58845,813.258265 1183.78544,813.837095 1183.78544,814.564432 C1183.78544,815.267524 1183.59754,815.885751 1183.22175,816.419132 C1182.84596,816.952512 1182.31562,817.367694 1181.63071,817.66469 C1180.9458,817.961686 1180.14877,818.110181 1179.2396,818.110181 C1178.23345,818.110181 1177.34248,817.973808 1176.56665,817.701056 Z M1186.79983,817.964715 L1186.79983,805.145467 L1187.9272,805.145467 L1187.9272,817.964715 L1186.79983,817.964715 Z M1193.9782,817.319207 C1193.1054,816.791887 1192.43262,816.034256 1191.95985,815.04629 C1191.48709,814.058324 1191.2507,812.891572 1191.2507,811.545999 C1191.2507,810.200426 1191.48709,809.033674 1191.95985,808.045708 C1192.43262,807.057742 1193.1054,806.303141 1193.9782,805.781883 C1194.85101,805.260625 1195.88139,805 1197.06937,805 C1197.9543,805 1198.76648,805.139404 1199.50594,805.418217 C1200.2454,805.697029 1200.88787,806.115241 1201.43337,806.672866 L1200.9606,807.56385 C1200.35449,807.006225 1199.74535,806.606195 1199.13318,806.36375 C1198.521,806.121304 1197.83913,806.000083 1197.08755,806.000083 C1195.60863,806.000083 1194.46007,806.484967 1193.64181,807.45475 C1192.82356,808.424532 1192.41444,809.788268 1192.41444,811.545999 C1192.41444,813.315852 1192.82053,814.685649 1193.63272,815.655432 C1194.44491,816.625214 1195.59651,817.110098 1197.08755,817.110098 C1197.83913,817.110098 1198.521,816.988877 1199.13318,816.746432 C1199.74535,816.503986 1200.35449,816.103957 1200.9606,815.546332 L1201.43337,816.437315 C1200.88787,816.99494 1200.2454,817.413152 1199.50594,817.691965 C1198.76648,817.970777 1197.9543,818.110181 1197.06937,818.110181 C1195.88139,818.110181 1194.85101,817.846526 1193.9782,817.319207 Z M1205.68423,817.701056 C1204.9084,817.428305 1204.21744,817.007062 1203.61133,816.437315 L1204.08409,815.546332 C1204.72658,816.116079 1205.37208,816.519139 1206.02062,816.755523 C1206.66916,816.991908 1207.44801,817.110098 1208.35718,817.110098 C1209.43606,817.110098 1210.27552,816.88887 1210.87557,816.446407 C1211.47562,816.003943 1211.77564,815.382686 1211.77564,814.582615 C1211.77564,814.109846 1211.63018,813.72497 1211.33924,813.427974 C1211.04831,813.130978 1210.67858,812.900658 1210.23006,812.737007 C1209.78154,812.573356 1209.18149,812.406678 1208.42991,812.236966 C1207.43588,812.018765 1206.63279,811.794506 1206.02062,811.564182 C1205.40844,811.333859 1204.89022,810.985349 1204.46594,810.518641 C1204.04166,810.051933 1203.82953,809.424614 1203.82953,808.636666 C1203.82953,807.909329 1204.01742,807.272919 1204.39321,806.727416 C1204.769,806.181914 1205.29934,805.75764 1205.98425,805.454583 C1206.66916,805.151526 1207.47225,805 1208.39354,805 C1209.26635,805 1210.0755,805.142435 1210.82102,805.427308 C1211.56654,805.712182 1212.21204,806.127364 1212.75754,806.672866 L1212.28478,807.56385 C1211.67866,807.018347 1211.0665,806.621348 1210.44826,806.372841 C1209.83002,806.124335 1209.14513,806.000083 1208.39354,806.000083 C1207.31466,806.000083 1206.47218,806.230403 1205.86606,806.69105 C1205.25995,807.151696 1204.95689,807.794168 1204.95689,808.618483 C1204.95689,809.333697 1205.22055,809.864039 1205.74787,810.209524 C1206.27519,810.555009 1207.04797,810.84897 1208.06624,811.091416 L1208.53901,811.200516 C1209.52092,811.442961 1210.29673,811.66722 1210.86648,811.873299 C1211.43622,812.079378 1211.91808,812.397583 1212.31205,812.827924 C1212.70603,813.258265 1212.90301,813.837095 1212.90301,814.564432 C1212.90301,815.267524 1212.71512,815.885751 1212.33933,816.419132 C1211.96354,816.952512 1211.43319,817.367694 1210.74829,817.66469 C1210.06338,817.961686 1209.26635,818.110181 1208.35718,818.110181 C1207.35103,818.110181 1206.46005,817.973808 1205.68423,817.701056 Z" id="UX-BASICS"></path>
        </g>
    </g>
</svg>