<?xml version="1.0" encoding="UTF-8"?>
<svg width="40px" height="40px" viewBox="0 0 40 40" version="1.1" xmlns="http://www.w3.org/2000/svg" xmlns:xlink="http://www.w3.org/1999/xlink">
    <!-- Generator: Sketch 44 (41411) - http://www.bohemiancoding.com/sketch -->
    <title>icon_launch copy</title>
    <desc>Created with Sketch.</desc>
    <defs></defs>
    <g id="Page-1" stroke="none" stroke-width="1" fill="none" fill-rule="evenodd">
        <g id="Artboard-Copy" transform="translate(-100.000000, -763.000000)" fill="#FFFFFF">
            <g id="icon_launch-copy" transform="translate(100.000000, 763.000000)">
                <path d="M4.32063736,22.2591285 C4.27042124,22.2438755 4.22273146,22.2212941 4.17910973,22.1921143 C3.93428347,22.0283435 3.86857511,21.69711 4.032346,21.4522838 L4.032346,21.4522838 C5.77903628,18.8411015 7.18292513,17.1649273 8.24401255,16.4237612 C9.38412919,15.6273935 11.5092396,14.946042 14.6193437,14.3797066 C22.3230716,4.53520519 30.6878796,-0.156579903 39.7137677,0.304351354 C40.5422076,7.4261384 36.23614,15.6249916 26.7955649,24.9009109 C26.5787001,27.7264446 26.0805321,29.8122555 25.301061,31.1583434 C24.5796522,32.404162 23.0389981,34.0150186 20.6790989,35.9909132 C20.6313996,36.0308507 20.5770808,36.0621349 20.5185991,36.0833509 C20.2417051,36.1838022 19.9358062,36.0407671 19.8353548,35.7638731 L19.8353548,35.7638731 L17.6629662,29.775686 C16.1606047,30.3984111 14.849808,30.3295559 13.7305761,29.5691205 L11.7103272,31.6963623 C11.5091947,31.9081469 11.1751296,31.9187563 10.960964,31.7201611 L10.960964,31.7201611 L9.31948166,30.1980189 C9.11207875,30.0056947 9.09088969,29.6849055 9.2711939,29.4669721 L9.2711939,29.4669721 L11.0718216,27.290557 C10.2787622,26.6564608 10.0513585,25.5937965 10.3896104,24.1025641 L4.32063736,22.2591285 Z M24.9350649,17.9487179 C26.6564719,17.9487179 28.0519481,16.5711326 28.0519481,14.8717949 C28.0519481,13.1724572 26.6564719,11.7948718 24.9350649,11.7948718 C23.2136579,11.7948718 21.8181818,13.1724572 21.8181818,14.8717949 C21.8181818,16.5711326 23.2136579,17.9487179 24.9350649,17.9487179 Z M31.6883117,10.2564103 C32.8359164,10.2564103 33.7662338,9.33802 33.7662338,8.20512821 C33.7662338,7.07223641 32.8359164,6.15384615 31.6883117,6.15384615 C30.540707,6.15384615 29.6103896,7.07223641 29.6103896,8.20512821 C29.6103896,9.33802 30.540707,10.2564103 31.6883117,10.2564103 Z" id="Combined-Shape"></path>
                <path d="M7.0179311,32.6494412 L2.60234669,37.521236 C2.21973824,37.9433749 2.25622829,38.5917751 2.6838495,38.9694783 C3.1114707,39.3471815 3.76829162,39.3111593 4.15090007,38.8890204 L8.56648448,34.0172255 C8.94909293,33.5950866 8.91260288,32.9466865 8.48498167,32.5689833 C8.05736046,32.1912801 7.40053955,32.2273023 7.0179311,32.6494412 Z" id="Line" fill-rule="nonzero"></path>
                <path d="M4.94000902,27.521236 L0.524424609,32.3930309 C0.14181616,32.8151698 0.178306211,33.4635699 0.605927419,33.8412731 C1.03354863,34.2189764 1.69036954,34.1829541 2.07297799,33.7608152 L6.4885624,28.8890204 C6.87117085,28.4668815 6.8346808,27.8184814 6.40705959,27.4407781 C5.97943839,27.0630749 5.32261747,27.0990972 4.94000902,27.521236 Z" id="Line-Copy-4" fill-rule="nonzero"></path>
                <path d="M13.7711779,33.1622617 L9.35559344,38.0340566 C8.97298499,38.4561954 9.00947504,39.1045956 9.43709625,39.4822988 C9.86471746,39.860002 10.5215384,39.8239798 10.9041468,39.4018409 L15.3197312,34.530046 C15.7023397,34.1079071 15.6658496,33.459507 15.2382284,33.0818038 C14.8106072,32.7041006 14.1537863,32.7401228 13.7711779,33.1622617 Z" id="Line-Copy-5" fill-rule="nonzero"></path>
            </g>
        </g>
    </g>
</svg>