<?xml version="1.0" encoding="UTF-8"?>
<svg width="196px" height="189px" viewBox="0 0 196 189" version="1.1" xmlns="http://www.w3.org/2000/svg" xmlns:xlink="http://www.w3.org/1999/xlink">
    <!-- Generator: Sketch 44 (41411) - http://www.bohemiancoding.com/sketch -->
    <title>Logo</title>
    <desc>Created with Sketch.</desc>
    <defs>
        <filter x="-2.9%" y="-2.1%" width="106.3%" height="108.3%" filterUnits="objectBoundingBox" id="filter-1">
            <feOffset dx="0" dy="4" in="SourceAlpha" result="shadowOffsetOuter1"></feOffset>
            <feGaussianBlur stdDeviation="0.5" in="shadowOffsetOuter1" result="shadowBlurOuter1"></feGaussianBlur>
            <feColorMatrix values="0 0 0 0 0   0 0 0 0 0   0 0 0 0 0  0 0 0 0.191944067 0" type="matrix" in="shadowBlurOuter1" result="shadowMatrixOuter1"></feColorMatrix>
            <feMerge>
                <feMergeNode in="shadowMatrixOuter1"></feMergeNode>
                <feMergeNode in="SourceGraphic"></feMergeNode>
            </feMerge>
        </filter>
        <path d="M2.89114958,184.42013 C0.963706888,182.529054 0,179.765215 0,176.128531 L0,161.290933 L6.54599904,161.290933 L6.54599904,176.383098 C6.54599904,178.225684 6.95815041,179.64397 7.78246553,180.637997 C8.60678064,181.632024 9.79474636,182.12903 11.3463983,182.12903 C12.8980503,182.12903 14.086016,181.632024 14.9103311,180.637997 C15.7346463,179.64397 16.1467976,178.225684 16.1467976,176.383098 L16.1467976,161.290933 L22.7291633,161.290933 L22.7291633,176.128531 C22.7291633,179.740971 21.7533343,182.498748 19.8016471,184.401947 C17.8499598,186.305145 15.0315718,187.256729 11.3463983,187.256729 C7.63698033,187.256729 4.81859226,186.311206 2.89114958,184.42013 Z M41.9954125,173.982898 L51.814411,186.92943 L43.9955788,186.92943 L38.2132797,178.856031 L32.3946139,186.92943 L24.648515,186.92943 L34.4311469,173.982898 L24.8303483,161.290933 L32.6128138,161.290933 L38.2132797,169.146132 L43.8864789,161.290933 L51.6325777,161.290933 L41.9954125,173.982898 Z M83.9281936,175.964881 C84.7403864,177.043764 85.1464767,178.383256 85.1464767,179.983397 C85.1464767,182.238141 84.4130897,183.95948 82.9462937,185.147463 C81.4794977,186.335447 79.4005577,186.92943 76.7094113,186.92943 L66.4540128,186.92943 L66.4540128,161.290933 L76.3457447,161.290933 C78.9641574,161.290933 80.9885479,161.872794 82.4189771,163.036533 C83.8494063,164.200272 84.5646101,165.861 84.5646101,168.018766 C84.5646101,169.400706 84.2070082,170.588671 83.4917936,171.582698 C82.776579,172.576725 81.7765059,173.316174 80.4915441,173.801065 C81.9704623,174.164733 83.1160007,174.885998 83.9281936,175.964881 Z M68.6723791,172.928265 L76.0184447,172.928265 C78.0792325,172.928265 79.6429833,172.503991 80.709744,171.655432 C81.7765048,170.806872 82.3098771,169.58254 82.3098771,167.982399 C82.3098771,164.806361 80.212754,163.218366 76.0184447,163.218366 L68.6723791,163.218366 L68.6723791,172.928265 Z M81.3461606,183.783713 C82.3765545,182.97152 82.8917437,181.729005 82.8917437,180.056131 C82.8917437,176.613403 80.7824984,174.892065 76.5639446,174.892065 L68.6723791,174.892065 L68.6723791,185.001996 L76.5639446,185.001996 C78.7217107,185.001996 80.3157667,184.595906 81.3461606,183.783713 Z M111.140558,186.92943 L108.194859,180.092497 L94.3755273,180.092497 L91.4298277,186.92943 L89.1387281,186.92943 L100.266926,161.290933 L102.303459,161.290933 L113.431658,186.92943 L111.140558,186.92943 Z M95.2119605,178.128697 L107.358425,178.128697 L101.285193,163.9457 L95.2119605,178.128697 Z M121.133309,186.402113 C119.581657,185.85661 118.199737,185.014124 116.987509,183.87463 L117.933042,182.092664 C119.218004,183.232158 120.509008,184.038278 121.806092,184.511047 C123.103176,184.983816 124.660866,185.220196 126.479208,185.220196 C128.636974,185.220196 130.315885,184.77774 131.51599,183.892813 C132.716096,183.007887 133.31614,181.765372 133.31614,180.165231 C133.31614,179.219693 133.02521,178.449939 132.44334,177.855948 C131.861471,177.261956 131.122023,176.801316 130.224974,176.474014 C129.327925,176.146713 128.127837,175.813355 126.624675,175.473931 C124.63662,175.037529 123.030442,174.589011 121.806092,174.128365 C120.581742,173.667718 119.545302,172.970697 118.696742,172.037282 C117.848183,171.103866 117.423909,169.849229 117.423909,168.273332 C117.423909,166.818659 117.799694,165.545838 118.551276,164.454833 C119.302857,163.363828 120.363541,162.515281 121.733359,161.909167 C123.103176,161.303052 124.709354,161 126.551941,161 C128.29755,161 129.91585,161.284869 131.406891,161.854617 C132.897931,162.424364 134.188935,163.254728 135.27994,164.345733 L134.334407,166.127699 C133.122179,165.036694 131.897847,164.242696 130.661374,163.745683 C129.424901,163.248669 128.055104,163.000166 126.551941,163.000166 C124.394175,163.000166 122.709203,163.460806 121.496975,164.3821 C120.284747,165.303393 119.678642,166.588335 119.678642,168.236966 C119.678642,169.667395 120.205954,170.728078 121.260592,171.419048 C122.31523,172.110018 123.860798,172.69794 125.897341,173.182832 L126.842875,173.401032 C128.806684,173.885923 130.358313,174.33444 131.497807,174.746598 C132.637302,175.158756 133.601008,175.795166 134.388957,176.655848 C135.176905,177.51653 135.570873,178.67419 135.570873,180.128864 C135.570873,181.535048 135.195088,182.771503 134.443507,183.838263 C133.691925,184.905024 132.631242,185.735388 131.261424,186.32938 C129.891606,186.923371 128.29755,187.220363 126.479208,187.220363 C124.466909,187.220363 122.684961,186.947616 121.133309,186.402113 Z M141.599658,186.92943 L141.599658,161.290933 L143.854391,161.290933 L143.854391,186.92943 L141.599658,186.92943 Z M155.956407,185.638413 C154.210799,184.583775 152.865246,183.068512 151.919708,181.09258 C150.97417,179.116649 150.501408,176.783144 150.501408,174.091998 C150.501408,171.400852 150.97417,169.067348 151.919708,167.091416 C152.865246,165.115484 154.210799,163.606283 155.956407,162.563766 C157.702016,161.52125 159.762773,161 162.13874,161 C163.908593,161 165.532954,161.278808 167.011873,161.836433 C168.490791,162.394058 169.775733,163.230483 170.866739,164.345733 L169.921205,166.127699 C168.708977,165.012449 167.490706,164.212391 166.266356,163.7275 C165.042006,163.242608 163.678269,163.000166 162.175107,163.000166 C159.21727,163.000166 156.920132,163.969934 155.283624,165.909499 C153.647116,167.849064 152.828875,170.576537 152.828875,174.091998 C152.828875,177.631704 153.641055,180.371299 155.265441,182.310864 C156.889827,184.250429 159.193025,185.220196 162.175107,185.220196 C163.678269,185.220196 165.042006,184.977754 166.266356,184.492863 C167.490706,184.007972 168.708977,183.207913 169.921205,182.092664 L170.866739,183.87463 C169.775733,184.98988 168.490791,185.826305 167.011873,186.38393 C165.532954,186.941555 163.908593,187.220363 162.13874,187.220363 C159.762773,187.220363 157.702016,186.693052 155.956407,185.638413 Z M179.368456,186.402113 C177.816804,185.85661 176.434885,185.014124 175.222657,183.87463 L176.16819,182.092664 C177.453152,183.232158 178.744155,184.038278 180.041239,184.511047 C181.338323,184.983816 182.896013,185.220196 184.714355,185.220196 C186.872121,185.220196 188.551032,184.77774 189.751138,183.892813 C190.951244,183.007887 191.551288,181.765372 191.551288,180.165231 C191.551288,179.219693 191.260357,178.449939 190.678488,177.855948 C190.096618,177.261956 189.35717,176.801316 188.460121,176.474014 C187.563073,176.146713 186.362985,175.813355 184.859822,175.473931 C182.871768,175.037529 181.26559,174.589011 180.041239,174.128365 C178.816889,173.667718 177.780449,172.970697 176.93189,172.037282 C176.08333,171.103866 175.659057,169.849229 175.659057,168.273332 C175.659057,166.818659 176.034842,165.545838 176.786423,164.454833 C177.538004,163.363828 178.598688,162.515281 179.968506,161.909167 C181.338324,161.303052 182.944502,161 184.787089,161 C186.532697,161 188.150997,161.284869 189.642038,161.854617 C191.133078,162.424364 192.424082,163.254728 193.515087,164.345733 L192.569554,166.127699 C191.357326,165.036694 190.132994,164.242696 188.896521,163.745683 C187.660049,163.248669 186.290251,163.000166 184.787089,163.000166 C182.629323,163.000166 180.944351,163.460806 179.732123,164.3821 C178.519895,165.303393 177.91379,166.588335 177.91379,168.236966 C177.91379,169.667395 178.441101,170.728078 179.495739,171.419048 C180.550378,172.110018 182.095945,172.69794 184.132489,173.182832 L185.078022,173.401032 C187.041831,173.885923 188.59346,174.33444 189.732954,174.746598 C190.872449,175.158756 191.836156,175.795166 192.624104,176.655848 C193.412052,177.51653 193.806021,178.67419 193.806021,180.128864 C193.806021,181.535048 193.430235,182.771503 192.678654,183.838263 C191.927073,184.905024 190.866389,185.735388 189.496571,186.32938 C188.126753,186.923371 186.532697,187.220363 184.714355,187.220363 C182.702057,187.220363 180.920108,186.947616 179.368456,186.402113 Z" id="path-2"></path>
        <filter x="-1.0%" y="-3.8%" width="102.1%" height="115.2%" filterUnits="objectBoundingBox" id="filter-3">
            <feOffset dx="0" dy="1" in="SourceAlpha" result="shadowOffsetOuter1"></feOffset>
            <feGaussianBlur stdDeviation="0.5" in="shadowOffsetOuter1" result="shadowBlurOuter1"></feGaussianBlur>
            <feColorMatrix values="0 0 0 0 0   0 0 0 0 0   0 0 0 0 0  0 0 0 0.273890399 0" type="matrix" in="shadowBlurOuter1"></feColorMatrix>
        </filter>
    </defs>
    <g id="Page-1" stroke="none" stroke-width="1" fill="none" fill-rule="evenodd">
        <g id="Home" transform="translate(-543.000000, -239.000000)">
            <g id="Logo" transform="translate(544.000000, 238.000000)">
                <g id="icon_launch-copy" filter="url(#filter-1)" transform="translate(36.000000, 0.000000)" fill="#FFFFFF">
                    <path d="M13.0087599,67.9137543 C12.8541006,67.8670682 12.7073145,67.7974588 12.573296,67.7072471 C11.8327775,67.208783 11.6365537,66.2043892 12.1350178,65.4638707 L12.1350177,65.4638707 C17.4668386,57.5429154 21.7523317,52.4581784 24.9914967,50.2096596 C28.4723677,47.7933568 34.9605064,45.7260309 44.455913,44.0076819 C67.976035,14.1379423 93.5144895,-0.0976591674 121.071277,1.30087754 C123.600573,22.9094807 110.45379,47.786069 81.630929,75.9306425 C80.9688227,84.5037487 79.4478745,90.8324214 77.0680843,94.9166603 C74.8636974,98.6998688 70.1538473,103.592536 62.9385339,109.594662 C62.7957601,109.71343 62.6335854,109.806703 62.4591304,109.870387 C61.6205977,110.176487 60.6926897,109.744864 60.3865899,108.906332 L60.3865899,108.906332 L53.7483458,90.7214639 C49.161511,92.6109081 45.1595396,92.4019909 41.7424316,90.0947122 L35.563032,96.5610345 C34.9541963,97.1981397 33.947219,97.230117 33.2991873,96.6329245 L33.2991873,96.6329245 L28.276828,92.0045779 C27.6436516,91.4210753 27.5790676,90.4436381 28.1299647,89.781898 L33.6250329,83.1811982 C31.2037568,81.2572523 30.5094742,78.0329645 31.5421854,73.5083349 L13.0087599,67.9137543 Z M76.4677295,54.317204 C81.8305182,54.317204 86.1779174,50.2640972 86.1779174,45.2643367 C86.1779174,40.2645761 81.8305182,36.2114693 76.4677295,36.2114693 C71.1049408,36.2114693 66.7575416,40.2645761 66.7575416,45.2643367 C66.7575416,50.2640972 71.1049408,54.317204 76.4677295,54.317204 Z M95.8881053,31.3832734 C99.2398482,31.3832734 101.956973,28.6812022 101.956973,25.3480285 C101.956973,22.0148548 99.2398482,19.3127836 95.8881053,19.3127836 C92.5363623,19.3127836 89.8192378,22.0148548 89.8192378,25.3480285 C89.8192378,28.6812022 92.5363623,31.3832734 95.8881053,31.3832734 Z" id="Combined-Shape"></path>
                    <path d="M21.2800848,98.7839288 L8.07426972,113.22377 C6.92999165,114.474976 7.03912349,116.396813 8.31802251,117.516313 C9.59692154,118.635813 11.5612947,118.529044 12.7055728,117.277838 L25.9113878,102.837997 C27.0556659,101.586791 26.9465341,99.6649542 25.667635,98.5454542 C24.388736,97.4259541 22.4243629,97.5327229 21.2800848,98.7839288 Z" id="Line" fill-rule="nonzero"></path>
                    <path d="M15.2112174,83.092292 L2.0054023,97.5321333 C0.861124229,98.7833392 0.970256071,100.705176 2.24915509,101.824676 C3.52805411,102.944176 5.49242727,102.837407 6.63670535,101.586201 L19.8425204,87.1463602 C20.9867985,85.8951543 20.8776666,83.9733175 19.5987676,82.8538174 C18.3198686,81.7343174 16.3554954,81.8410861 15.2112174,83.092292 Z" id="Line-Copy-4" fill-rule="nonzero"></path>
                    <path d="M41.914234,99.9909777 L28.708419,114.430819 C27.5641409,115.682025 27.6732727,117.603862 28.9521717,118.723362 C30.2310708,119.842862 32.1954439,119.736093 33.339722,118.484887 L46.5455371,104.045046 C47.6898151,102.79384 47.5806833,100.872003 46.3017843,99.7525031 C45.0228853,98.6330031 43.0585121,98.7397718 41.914234,99.9909777 Z" id="Line-Copy-5" fill-rule="nonzero"></path>
                </g>
                <g id="UX-BASICS">
                    <use fill="black" fill-opacity="1" filter="url(#filter-3)" xlink:href="#path-2"></use>
                    <use fill="#FFFFFF" fill-rule="evenodd" xlink:href="#path-2"></use>
                </g>
            </g>
        </g>
    </g>
</svg>