<?xml version="1.0" encoding="UTF-8"?>
<svg width="36px" height="30px" viewBox="0 0 36 30" version="1.1" xmlns="http://www.w3.org/2000/svg" xmlns:xlink="http://www.w3.org/1999/xlink">
    <!-- Generator: Sketch 44 (41411) - http://www.bohemiancoding.com/sketch -->
    <title>icon_define copy</title>
    <desc>Created with Sketch.</desc>
    <defs></defs>
    <g id="Page-1" stroke="none" stroke-width="1" fill="none" fill-rule="evenodd">
        <g id="Artboard-Copy" transform="translate(-104.000000, -341.000000)" fill="#FFFFFF">
            <g id="icon_define-copy" transform="translate(104.000000, 341.000000)">
                <g id="Group-4">
                    <path d="M2.04457543,2.02702703 L2.04457543,27.972973 L28.2151409,27.972973 L28.2151409,2.02702703 L2.04457543,2.02702703 Z M2.04457543,0 L28.2151409,0 C29.3443287,0 30.2597163,0.907530913 30.2597163,2.02702703 L30.2597163,27.972973 C30.2597163,29.0924691 29.3443287,30 28.2151409,30 L2.04457543,30 C0.915387599,30 0,29.0924691 0,27.972973 L0,2.02702703 C0,0.907530913 0.915387599,0 2.04457543,0 Z" id="Rectangle-9" fill-rule="nonzero"></path>
                    <g id="Group-3" transform="translate(5.724811, 6.891892)">
                        <rect id="Rectangle-10" x="0" y="0" width="2.45349051" height="2.43243243" rx="0.6"></rect>
                        <rect id="Rectangle-10-Copy-3" x="4.90698103" y="0" width="14.312028" height="2.43243243" rx="0.6"></rect>
                        <rect id="Rectangle-10-Copy-4" x="4.90698103" y="4.86486486" width="14.312028" height="2.43243243" rx="0.6"></rect>
                        <rect id="Rectangle-10-Copy-5" x="4.90698103" y="9.72972973" width="14.312028" height="2.43243243" rx="0.6"></rect>
                        <rect id="Rectangle-10-Copy" x="0" y="4.86486486" width="2.45349051" height="2.43243243" rx="0.6"></rect>
                        <rect id="Rectangle-10-Copy-2" x="0" y="9.72972973" width="2.45349051" height="2.43243243" rx="0.6"></rect>
                    </g>
                </g>
                <g id="Pencil" transform="translate(26.407349, 17.520073) rotate(-270.000000) translate(-26.407349, -17.520073) translate(16.095874, 7.620073)">
                    <path d="M6.81447135,-0.51888876 C7.84302909,-0.870151314 8.61709541,-1.04578259 9.13667033,-1.04578259 C9.65363534,-1.04578259 10.3769248,-0.871911335 11.3065388,-0.524168824 L11.3065388,-0.524168815 C11.4649314,-0.464918599 11.5699059,-0.313571961 11.5699059,-0.144460186 L11.5699059,17.9569109 L11.5699059,17.9569109 C11.5699059,18.1808101 11.3883997,18.3623163 11.1645004,18.3623163 C11.1150786,18.3623163 11.0660733,18.3532796 11.019902,18.335652 C10.7529472,18.2337322 10.5386821,18.1827722 10.3771068,18.1827722 C10.1474248,18.1827722 9.80239125,18.2857474 9.34200612,18.4916979 L9.34200612,18.4916979 C9.22275458,18.5450443 9.08510324,18.537655 8.97224799,18.4718488 C8.57599051,18.2407898 8.24728929,18.1252603 7.98614433,18.1252603 C7.77689174,18.1252603 7.478271,18.1994376 7.0902821,18.3477923 L7.0902821,18.3477923 C6.8811497,18.4277579 6.64678945,18.3230475 6.56682383,18.1139151 C6.54914813,18.0676882 6.54008614,18.0186155 6.54008614,17.9691246 L6.54008614,-0.135238872 L6.54008616,-0.135238872 C6.54008616,-0.308642962 6.65037274,-0.462847476 6.81447135,-0.51888876 Z" id="Rectangle-2-Copy" transform="translate(9.054996, 8.740222) rotate(-45.000000) translate(-9.054996, -8.740222) "></path>
                    <path d="M18.5679891,16.5149358 L19.4274909,18.2037883 L19.4274909,18.2037883 C19.5290441,18.4033323 19.4496069,18.6474198 19.2500629,18.7489731 C19.2272474,18.7605844 19.2033835,18.7700086 19.1787907,18.7771194 C18.7636634,18.8971491 18.4357329,18.9571639 18.1949992,18.9571639 C17.9557155,18.9571639 17.6345154,18.8978699 17.2313988,18.7792819 L17.2313988,18.7792819 C17.0166012,18.7160931 16.8936979,18.4907406 16.9568866,18.2759429 C16.963934,18.2519867 16.9731797,18.2287329 16.9845059,18.2064779 L17.8453764,16.5149358 L17.8453764,16.5149358 C17.9469296,16.3153919 18.1910171,16.2359546 18.3905611,16.3375079 C18.466979,16.3763989 18.529098,16.438518 18.5679891,16.5149358 Z" id="Triangle-4" transform="translate(18.205988, 17.628318) rotate(-225.000000) translate(-18.205988, -17.628318) "></path>
                </g>
            </g>
        </g>
    </g>
</svg>