<?xml version="1.0" encoding="UTF-8"?>
<svg width="29px" height="29px" viewBox="0 0 29 29" version="1.1" xmlns="http://www.w3.org/2000/svg" xmlns:xlink="http://www.w3.org/1999/xlink">
    <!-- Generator: Sketch 44 (41411) - http://www.bohemiancoding.com/sketch -->
    <title>icon_design copy</title>
    <desc>Created with Sketch.</desc>
    <defs></defs>
    <g id="Page-1" stroke="none" stroke-width="1" fill="none" fill-rule="evenodd">
        <g id="Artboard-Copy" transform="translate(-106.000000, -483.000000)">
            <g id="icon_design-copy" transform="translate(105.000000, 483.000000)">
                <rect id="Rectangle-2" stroke="#FFFFFF" stroke-width="1.55844156" transform="translate(15.805848, 15.105021) rotate(-315.000000) translate(-15.805848, -15.105021) " x="10.6235302" y="1.46865687" width="10.3646354" height="27.2727273" rx="1.55844156"></rect>
                <path d="M7.38665871,16.9146287 L10.3740445,19.8431929 C10.6844613,20.1474975 11.1877463,20.1474975 11.498163,19.8431929 C11.8085797,19.5388882 11.8085797,19.0455129 11.498163,18.7412083 L8.51077719,15.8126441 C8.20036044,15.5083394 7.69707546,15.5083394 7.38665871,15.8126441 C7.07624197,16.1169487 7.07624197,16.610324 7.38665871,16.9146287 Z" id="Line" fill="#FFFFFF" fill-rule="nonzero"></path>
                <path d="M19.3097356,5.22631697 L22.2971215,8.1548812 C22.6075382,8.45918584 23.1108232,8.45918584 23.4212399,8.1548812 C23.7316567,7.85057656 23.7316567,7.35720125 23.4212399,7.05289661 L20.4338541,4.12433238 C20.1234374,3.82002774 19.6201524,3.82002774 19.3097356,4.12433238 C18.9993189,4.42863702 18.9993189,4.92201233 19.3097356,5.22631697 Z" id="Line-Copy-2" fill="#FFFFFF" fill-rule="nonzero"></path>
                <path d="M4.60460743,19.252291 L7.59199325,22.1808552 C7.90240999,22.4851599 8.40569498,22.4851599 8.71611172,22.1808552 C9.02652847,21.8765506 9.02652847,21.3831753 8.71611172,21.0788706 L5.7287259,18.1503064 C5.41830916,17.8460018 4.91502418,17.8460018 4.60460743,18.1503064 C4.29419069,18.454611 4.29419069,18.9479864 4.60460743,19.252291 Z" id="Line-Copy" fill="#FFFFFF" fill-rule="nonzero"></path>
                <path d="M16.5276844,7.56397931 L19.5150702,10.4925435 C19.8254869,10.7968482 20.3287719,10.7968482 20.6391886,10.4925435 C20.9496054,10.1882389 20.9496054,9.69486359 20.6391886,9.39055895 L17.6518028,6.46199472 C17.3413861,6.15769007 16.8381011,6.15769007 16.5276844,6.46199472 C16.2172676,6.76629936 16.2172676,7.25967467 16.5276844,7.56397931 Z" id="Line-Copy-3" fill="#FFFFFF" fill-rule="nonzero"></path>
                <g id="Pencil" fill="#FFFFFF">
                    <path d="M10.2355077,-0.745979212 C11.8768905,-1.3144171 13.1055341,-1.59863605 13.9214383,-1.59863605 C14.7349436,-1.59863605 15.8844725,-1.31608601 17.3700251,-0.750985934 L17.3700251,-0.750985921 C17.5211913,-0.693482727 17.6211126,-0.548566422 17.6211126,-0.386832591 L17.6211126,27.5668851 L17.6211125,27.5668851 C17.6211125,27.7820609 17.4466781,27.9564954 17.2315022,27.9564954 C17.1786265,27.9564954 17.1263041,27.9457326 17.0777215,27.9248623 C16.533094,27.6908999 16.1096839,27.5739187 15.8074912,27.5739187 C15.441198,27.5739187 14.8819534,27.745791 14.1297573,28.0895354 L14.1297573,28.0895354 C14.0128531,28.1429593 13.8771219,28.1352878 13.7669819,28.0690316 C13.1215893,27.680787 12.5899593,27.4866646 12.172092,27.4866646 C11.8022302,27.4866646 11.2487395,27.6387466 10.51162,27.9429106 L10.51162,27.9429106 C10.3127128,28.0249874 10.0849303,27.9302777 10.0028535,27.7313705 C9.98340465,27.6842375 9.97339642,27.6337454 9.97339642,27.5827574 L9.97339642,-0.377821354 L9.97339645,-0.377821354 C9.97339645,-0.543853986 10.0786171,-0.691645403 10.2355077,-0.745979212 Z" id="Rectangle-2-Copy" transform="translate(13.797255, 13.289248) rotate(-45.000000) translate(-13.797255, -13.289248) "></path>
                    <path d="M28.1241085,24.8890732 L29.7556932,28.0879908 L29.7556932,28.0879908 C29.8534597,28.2796738 29.7773254,28.5143189 29.5856424,28.6120855 C29.5658778,28.6221662 29.5452883,28.6305403 29.5240983,28.6371163 C28.7641086,28.87297 28.1758329,28.9908968 27.7592712,28.9908968 C27.3439419,28.9908968 26.7663006,28.8736668 26.0263473,28.6392066 L26.0263473,28.6392066 C25.8212223,28.5742111 25.7076249,28.3552353 25.7726204,28.1501103 C25.7790889,28.129696 25.7872294,28.1098497 25.7969593,28.0907731 L27.429963,24.8890732 L27.429963,24.8890732 C27.5277296,24.6973902 27.7623747,24.6212559 27.9540577,24.7190224 C28.0272549,24.7563561 28.0867748,24.815876 28.1241085,24.8890732 Z" id="Triangle-4" transform="translate(27.777036, 26.840496) rotate(-225.000000) translate(-27.777036, -26.840496) "></path>
                </g>
            </g>
        </g>
    </g>
</svg>