<?xml version="1.0" encoding="UTF-8"?>
<svg width="274px" height="157px" viewBox="0 0 274 157" version="1.1" xmlns="http://www.w3.org/2000/svg" xmlns:xlink="http://www.w3.org/1999/xlink">
    <!-- Generator: Sketch 44 (41411) - http://www.bohemiancoding.com/sketch -->
    <title>Group</title>
    <desc>Created with Sketch.</desc>
    <defs></defs>
    <g id="Page-1" stroke="none" stroke-width="1" fill="none" fill-rule="evenodd">
        <g id="Home-3" transform="translate(-495.000000, -296.000000)">
            <g id="Group" transform="translate(495.000000, 296.000000)">
                <rect id="Rectangle-14" fill="#3ED17F" x="0" y="100" width="274" height="57" rx="8"></rect>
                <path d="M145.292767,121.40269 L133.406902,133.287611 L134.379135,134.259921 L135.351445,133.287688 L134.379072,132.315237 L133.406761,133.28747 C133.562609,133.141108 133.793505,133.143951 133.937039,133.287439 L133.672018,133.022516 L128.347093,127.699549 C127.810023,127.162677 126.939421,127.162837 126.402549,127.699907 C125.865677,128.236977 125.865837,129.107579 126.402907,129.644451 L131.992828,135.232316 C132.557924,135.797232 133.33685,136.017926 134.069023,135.894405 L134.879346,135.232316 L147.237233,123.34731 C147.774225,122.810361 147.77426,121.939759 147.23731,121.402767 C146.700361,120.865775 145.829759,120.86574 145.292767,121.40269 Z" id="Check" fill="#FFFFFF" fill-rule="nonzero"></path>
                <rect id="Rectangle-14-Copy" fill="#F1F1F1" opacity="0.191859149" x="75" y="50" width="179" height="30" rx="8"></rect>
                <rect id="Rectangle-14-Copy-2" fill="#F1F1F1" opacity="0.191859149" x="37" y="0" width="100" height="30" rx="8"></rect>
            </g>
        </g>
    </g>
</svg>