<?xml version="1.0" encoding="UTF-8"?>
<svg width="41px" height="28px" viewBox="0 0 41 28" version="1.1" xmlns="http://www.w3.org/2000/svg" xmlns:xlink="http://www.w3.org/1999/xlink">
    <!-- Generator: Sketch 44 (41411) - http://www.bohemiancoding.com/sketch -->
    <title>icon_binocular_white</title>
    <desc>Created with Sketch.</desc>
    <defs></defs>
    <g id="Page-1" stroke="none" stroke-width="1" fill="none" fill-rule="evenodd">
        <g id="Artboard-Copy" transform="translate(-100.000000, -49.000000)" fill="#FFFFFF">
            <g id="icon_binocular_white" transform="translate(100.000000, 47.000000)">
                <g id="Group-5">
                    <path d="M9.71052632,27.9315455 C13.9235266,27.9315455 17.3470535,24.4914404 17.3470535,20.2378788 C17.3470535,15.9843172 13.9235266,12.5442122 9.71052632,12.5442122 C5.49752605,12.5442122 2.07399913,15.9843172 2.07399913,20.2378788 C2.07399913,24.4914404 5.49752605,27.9315455 9.71052632,27.9315455 Z M9.71052632,29.9954275 C4.34755072,29.9954275 0,25.6268242 0,20.2378788 C0,14.8489335 4.34755072,10.4803301 9.71052632,10.4803301 C15.0735019,10.4803301 19.4210526,14.8489335 19.4210526,20.2378788 C19.4210526,25.6268242 15.0735019,29.9954275 9.71052632,29.9954275 Z" id="Oval-3" fill-rule="nonzero"></path>
                    <path d="M31.2894737,27.9315455 C35.5024739,27.9315455 38.9260009,24.4914404 38.9260009,20.2378788 C38.9260009,15.9843172 35.5024739,12.5442122 31.2894737,12.5442122 C27.0764734,12.5442122 23.6529465,15.9843172 23.6529465,20.2378788 C23.6529465,24.4914404 27.0764734,27.9315455 31.2894737,27.9315455 Z M31.2894737,29.9954275 C25.9264981,29.9954275 21.5789474,25.6268242 21.5789474,20.2378788 C21.5789474,14.8489335 25.9264981,10.4803301 31.2894737,10.4803301 C36.6524493,10.4803301 41,14.8489335 41,20.2378788 C41,25.6268242 36.6524493,29.9954275 31.2894737,29.9954275 Z" id="Oval-3-Copy" fill-rule="nonzero"></path>
                    <rect id="Rectangle-11" x="17.9824561" y="9.75754871" width="5.03508772" height="13.7328463" rx="2.51754386"></rect>
                    <path d="M29.3817785,3.22823 L29.6173276,3.22823 L29.6173276,3.22823 C32.2005034,3.22823 34.3552424,5.20255911 34.5805438,7.77589093 L35.6625616,20.1344038 L29.9056441,13.1180965 L20.3158934,12.428006 L23.2454097,8.13017628 L24.9524181,7.5565869 L24.9524181,7.5565869 L24.9524181,7.5565869 C25.0079334,5.15012152 26.9746729,3.22823 29.3817785,3.22823 Z" id="Rectangle-11-Copy" transform="translate(27.989227, 11.681317) rotate(-34.000000) translate(-27.989227, -11.681317) "></path>
                    <path d="M14.4749057,3.14847674 L14.7104548,3.14847674 L14.7104548,3.14847674 C17.3042849,3.14847674 19.4783582,5.10923962 19.745272,7.68930003 L21.02832,20.0915874 L14.9987712,13.0383432 L5.40902061,12.3482527 L8.33853691,8.05042303 L10.0455452,7.47683364 L10.0455452,7.47683364 L10.0455452,7.47683364 C10.1010606,5.07036827 12.0678001,3.14847674 14.4749057,3.14847674 Z" id="Rectangle-11-Copy-2" transform="translate(13.218670, 11.620032) scale(-1, 1) rotate(-34.000000) translate(-13.218670, -11.620032) "></path>
                </g>
                <path d="M36.4061519,17.037037 C38.2490487,21.1516815 37.1947458,24.2420089 33.2432432,26.308019 C34.5936648,24.4811158 35.4490829,23.0394481 35.8094977,21.9830158 C36.1699125,20.9265835 36.3687972,19.2779239 36.4061519,17.037037 Z" id="Path-6"></path>
                <path d="M14.6133591,17.037037 C16.4562559,21.1516815 15.401953,24.2420089 11.4504505,26.308019 C12.800872,24.4811158 13.6562901,23.0394481 14.0167049,21.9830158 C14.3771197,20.9265835 14.5760044,19.2779239 14.6133591,17.037037 Z" id="Path-6-Copy"></path>
            </g>
        </g>
    </g>
</svg>