<?xml version="1.0" encoding="UTF-8"?>
<svg width="302px" height="193px" viewBox="0 0 302 193" version="1.1" xmlns="http://www.w3.org/2000/svg" xmlns:xlink="http://www.w3.org/1999/xlink">
    <!-- Generator: Sketch 44 (41411) - http://www.bohemiancoding.com/sketch -->
    <title>Group</title>
    <desc>Created with Sketch.</desc>
    <defs>
        <filter x="-2.4%" y="-1.2%" width="105.1%" height="105.1%" filterUnits="objectBoundingBox" id="filter-1">
            <feOffset dx="0" dy="1" in="SourceAlpha" result="shadowOffsetOuter1"></feOffset>
            <feGaussianBlur stdDeviation="0.5" in="shadowOffsetOuter1" result="shadowBlurOuter1"></feGaussianBlur>
            <feColorMatrix values="0 0 0 0 0   0 0 0 0 0   0 0 0 0 0  0 0 0 0.5 0" type="matrix" in="shadowBlurOuter1" result="shadowMatrixOuter1"></feColorMatrix>
            <feMerge>
                <feMergeNode in="shadowMatrixOuter1"></feMergeNode>
                <feMergeNode in="SourceGraphic"></feMergeNode>
            </feMerge>
        </filter>
        <filter x="-2.4%" y="-1.2%" width="105.1%" height="105.1%" filterUnits="objectBoundingBox" id="filter-2">
            <feOffset dx="0" dy="1" in="SourceAlpha" result="shadowOffsetOuter1"></feOffset>
            <feGaussianBlur stdDeviation="0.5" in="shadowOffsetOuter1" result="shadowBlurOuter1"></feGaussianBlur>
            <feColorMatrix values="0 0 0 0 0   0 0 0 0 0   0 0 0 0 0  0 0 0 0.5 0" type="matrix" in="shadowBlurOuter1" result="shadowMatrixOuter1"></feColorMatrix>
            <feMerge>
                <feMergeNode in="shadowMatrixOuter1"></feMergeNode>
                <feMergeNode in="SourceGraphic"></feMergeNode>
            </feMerge>
        </filter>
        <filter x="-2.4%" y="-1.2%" width="105.1%" height="105.1%" filterUnits="objectBoundingBox" id="filter-3">
            <feOffset dx="0" dy="1" in="SourceAlpha" result="shadowOffsetOuter1"></feOffset>
            <feGaussianBlur stdDeviation="0.5" in="shadowOffsetOuter1" result="shadowBlurOuter1"></feGaussianBlur>
            <feColorMatrix values="0 0 0 0 0   0 0 0 0 0   0 0 0 0 0  0 0 0 0.5 0" type="matrix" in="shadowBlurOuter1" result="shadowMatrixOuter1"></feColorMatrix>
            <feMerge>
                <feMergeNode in="shadowMatrixOuter1"></feMergeNode>
                <feMergeNode in="SourceGraphic"></feMergeNode>
            </feMerge>
        </filter>
        <filter x="-2.4%" y="-1.2%" width="105.1%" height="105.1%" filterUnits="objectBoundingBox" id="filter-4">
            <feOffset dx="0" dy="1" in="SourceAlpha" result="shadowOffsetOuter1"></feOffset>
            <feGaussianBlur stdDeviation="0.5" in="shadowOffsetOuter1" result="shadowBlurOuter1"></feGaussianBlur>
            <feColorMatrix values="0 0 0 0 0   0 0 0 0 0   0 0 0 0 0  0 0 0 0.5 0" type="matrix" in="shadowBlurOuter1" result="shadowMatrixOuter1"></feColorMatrix>
            <feMerge>
                <feMergeNode in="shadowMatrixOuter1"></feMergeNode>
                <feMergeNode in="SourceGraphic"></feMergeNode>
            </feMerge>
        </filter>
        <filter x="-2.4%" y="-1.2%" width="105.1%" height="105.1%" filterUnits="objectBoundingBox" id="filter-5">
            <feOffset dx="0" dy="1" in="SourceAlpha" result="shadowOffsetOuter1"></feOffset>
            <feGaussianBlur stdDeviation="0.5" in="shadowOffsetOuter1" result="shadowBlurOuter1"></feGaussianBlur>
            <feColorMatrix values="0 0 0 0 0   0 0 0 0 0   0 0 0 0 0  0 0 0 0.5 0" type="matrix" in="shadowBlurOuter1" result="shadowMatrixOuter1"></feColorMatrix>
            <feMerge>
                <feMergeNode in="shadowMatrixOuter1"></feMergeNode>
                <feMergeNode in="SourceGraphic"></feMergeNode>
            </feMerge>
        </filter>
        <filter x="-2.4%" y="-1.2%" width="105.1%" height="105.1%" filterUnits="objectBoundingBox" id="filter-6">
            <feOffset dx="0" dy="1" in="SourceAlpha" result="shadowOffsetOuter1"></feOffset>
            <feGaussianBlur stdDeviation="0.5" in="shadowOffsetOuter1" result="shadowBlurOuter1"></feGaussianBlur>
            <feColorMatrix values="0 0 0 0 0   0 0 0 0 0   0 0 0 0 0  0 0 0 0.5 0" type="matrix" in="shadowBlurOuter1" result="shadowMatrixOuter1"></feColorMatrix>
            <feMerge>
                <feMergeNode in="shadowMatrixOuter1"></feMergeNode>
                <feMergeNode in="SourceGraphic"></feMergeNode>
            </feMerge>
        </filter>
    </defs>
    <g id="Page-1" stroke="none" stroke-width="1" fill="none" fill-rule="evenodd">
        <g id="Home-2" transform="translate(-490.000000, -286.000000)">
            <g id="Group" transform="translate(491.000000, 286.000000)">
                <g id="discover-icon" filter="url(#filter-1)">
                    <g id="icon_binocular_white" transform="translate(22.727273, 25.466667)" fill="#3ED17F">
                        <g id="Group-5">
                            <path d="M8.8277512,25.4044056 C12.6577514,25.4044056 15.7700486,22.2755482 15.7700486,18.4068326 C15.7700486,14.5381171 12.6577514,11.4092596 8.8277512,11.4092596 C4.99775096,11.4092596 1.88545376,14.5381171 1.88545376,18.4068326 C1.88545376,22.2755482 4.99775096,25.4044056 8.8277512,25.4044056 Z M8.8277512,27.2815555 C3.95231884,27.2815555 0,23.3082067 0,18.4068326 C0,13.5054585 3.95231884,9.53210976 8.8277512,9.53210976 C13.7031836,9.53210976 17.6555024,13.5054585 17.6555024,18.4068326 C17.6555024,23.3082067 13.7031836,27.2815555 8.8277512,27.2815555 Z" id="Oval-3" fill-rule="nonzero"></path>
                            <path d="M28.4449761,25.4044056 C32.2749763,25.4044056 35.3872735,22.2755482 35.3872735,18.4068326 C35.3872735,14.5381171 32.2749763,11.4092596 28.4449761,11.4092596 C24.6149758,11.4092596 21.5026786,14.5381171 21.5026786,18.4068326 C21.5026786,22.2755482 24.6149758,25.4044056 28.4449761,25.4044056 Z M28.4449761,27.2815555 C23.5695437,27.2815555 19.6172249,23.3082067 19.6172249,18.4068326 C19.6172249,13.5054585 23.5695437,9.53210976 28.4449761,9.53210976 C33.3204084,9.53210976 37.2727273,13.5054585 37.2727273,18.4068326 C37.2727273,23.3082067 33.3204084,27.2815555 28.4449761,27.2815555 Z" id="Oval-3-Copy" fill-rule="nonzero"></path>
                            <rect id="Rectangle-11" x="16.3476874" y="8.87472288" width="4.57735247" height="12.4903507" rx="2.28867624"></rect>
                            <path d="M26.712581,2.93615205 L26.9248433,2.93615205 L26.9248433,2.93615205 C29.2731593,2.93615205 31.2319666,4.7310287 31.4366871,7.07040422 L32.4205105,18.3127196 L27.1869492,11.9312211 L18.468994,11.3035673 L21.1321907,7.39458891 L22.6840164,6.8728957 L22.6840164,6.8728957 L22.6840164,6.8728957 C22.7344848,4.68416499 24.5232685,2.93615205 26.712581,2.93615205 Z" id="Rectangle-11-Copy" transform="translate(25.444752, 10.624436) rotate(-34.000000) translate(-25.444752, -10.624436) "></path>
                            <path d="M13.1608785,2.86361456 L13.3731407,2.86361456 L13.3731407,2.86361456 C15.7311384,2.86361456 17.7075146,4.64616482 17.9500461,6.99165654 L19.1166545,18.2737771 L13.6352466,11.8586836 L4.91729147,11.2310298 L7.5804881,7.32205142 L9.13231386,6.80035822 L9.13231386,6.80035822 L9.13231386,6.80035822 C9.18278222,4.6116275 10.971566,2.86361456 13.1608785,2.86361456 Z" id="Rectangle-11-Copy-2" transform="translate(12.016973, 10.568696) scale(-1, 1) rotate(-34.000000) translate(-12.016973, -10.568696) "></path>
                        </g>
                        <path d="M33.0965018,15.4955908 C34.7718625,19.237958 33.8134053,22.0486843 30.2211302,23.9277697 C31.4487862,22.2661577 32.226439,20.9549266 32.5540888,19.9940763 C32.8817386,19.0332259 33.0625429,17.5337308 33.0965018,15.4955908 Z" id="Path-6"></path>
                        <path d="M13.2848719,15.4955908 C14.9602327,19.237958 14.0017755,22.0486843 10.4095004,23.9277697 C11.6371563,22.2661577 12.4148092,20.9549266 12.742459,19.9940763 C13.0701088,19.0332259 13.2509131,17.5337308 13.2848719,15.4955908 Z" id="Path-6-Copy"></path>
                    </g>
                    <ellipse id="Oval-4" stroke="#3ED17F" stroke-width="2.45330641" cx="40.9090909" cy="40.9285714" rx="39.6824377" ry="39.7019182"></ellipse>
                </g>
                <g id="research-icon" filter="url(#filter-2)" transform="translate(109.090909, 0.000000)">
                    <g id="icon_research-copy" transform="translate(27.272727, 22.738095)" fill="#2BC3A6">
                        <path d="M12.6579353,23.8728345 C18.6500364,23.8728345 23.5075941,18.9398043 23.5075941,12.8546032 C23.5075941,6.76940206 18.6500364,1.83637188 12.6579353,1.83637188 C6.66583418,1.83637188 1.80827647,6.76940206 1.80827647,12.8546032 C1.80827647,18.9398043 6.66583418,23.8728345 12.6579353,23.8728345 Z M12.6579353,25.7092063 C5.66715066,25.7092063 0,19.9540045 0,12.8546032 C0,5.75520188 5.66715066,0 12.6579353,0 C19.6487199,0 25.3158706,5.75520188 25.3158706,12.8546032 C25.3158706,19.9540045 19.6487199,25.7092063 12.6579353,25.7092063 Z" id="Oval-2" fill-rule="nonzero"></path>
                        <rect id="Combined-Shape" x="21.0838356" y="21.9617945" width="3.94267797" height="14.870123" rx="1.97133899"></rect>
                        <rect id="Rectangle-7" x="6.68721109" y="7.76126984" width="10.4187546" height="1.86717036" rx="0.933585182"></rect>
                        <rect id="Rectangle-7-Copy" x="7.64252696" y="12.1269841" width="12.8702263" height="1.86717036" rx="0.933585182"></rect>
                        <rect id="Rectangle-7-Copy-2" x="5.25423729" y="16.4926984" width="12.8702263" height="1.86717036" rx="0.933585182"></rect>
                    </g>
                    <ellipse id="Oval-4-Copy" stroke="#2BC3A6" stroke-width="2.45330641" cx="40.9090909" cy="40.9285714" rx="39.6824377" ry="39.7019182"></ellipse>
                </g>
                <g id="define-icon" filter="url(#filter-3)" transform="translate(218.181818, 0.000000)">
                    <g id="icon_define-copy" transform="translate(26.363636, 27.285714)" fill="#F0C830">
                        <g id="Group-4">
                            <path d="M1.85870493,1.84362934 L1.85870493,25.4420849 L25.6501281,25.4420849 L25.6501281,1.84362934 L1.85870493,1.84362934 Z M1.85870493,0 L25.6501281,0 C26.6766625,0 27.508833,0.825420973 27.508833,1.84362934 L27.508833,25.4420849 C27.508833,26.4602933 26.6766625,27.2857143 25.6501281,27.2857143 L1.85870493,27.2857143 C0.832170545,27.2857143 0,26.4602933 0,25.4420849 L0,1.84362934 C0,0.825420973 0.832170545,0 1.85870493,0 Z" id="Rectangle-9" fill-rule="nonzero"></path>
                            <g id="Group-3" transform="translate(5.204374, 6.268340)">
                                <rect id="Rectangle-10" x="0" y="0" width="2.23044592" height="2.21235521" rx="0.545179202"></rect>
                                <rect id="Rectangle-10-Copy-3" x="4.46089184" y="0" width="13.0109345" height="2.21235521" rx="0.545179202"></rect>
                                <rect id="Rectangle-10-Copy-4" x="4.46089184" y="4.42471042" width="13.0109345" height="2.21235521" rx="0.545179202"></rect>
                                <rect id="Rectangle-10-Copy-5" x="4.46089184" y="8.84942085" width="13.0109345" height="2.21235521" rx="0.545179202"></rect>
                                <rect id="Rectangle-10-Copy" x="0" y="4.42471042" width="2.23044592" height="2.21235521" rx="0.545179202"></rect>
                                <rect id="Rectangle-10-Copy-2" x="0" y="8.84942085" width="2.23044592" height="2.21235521" rx="0.545179202"></rect>
                            </g>
                        </g>
                        <g id="Pencil" transform="translate(23.915772, 16.106391) rotate(-270.000000) translate(-23.915772, -16.106391) translate(14.370318, 7.011153)">
                            <path d="M6.1947938,-0.471880128 C7.12993606,-0.79140282 7.83369277,-0.951164166 8.30606394,-0.951164166 C8.77606535,-0.951164166 9.43366099,-0.793001761 10.2788509,-0.476676952 L10.2788509,-0.476676945 C10.4227409,-0.422823951 10.5180962,-0.285320937 10.5180962,-0.131683367 L10.5180962,16.3326722 L10.5180962,16.3326722 C10.5180962,16.5361142 10.3531739,16.7010365 10.1497319,16.7010365 C10.1047998,16.7010365 10.0602468,16.6928161 10.0182733,16.6767811 C9.77550314,16.5840365 9.58065651,16.5376642 9.43373344,16.5376642 C9.22492861,16.5376642 8.91125565,16.6313254 8.49271458,16.8186477 L8.49271458,16.8186477 C8.38432088,16.8671604 8.25918736,16.860441 8.15661206,16.8005997 C7.79636772,16.5904371 7.49754077,16.4853558 7.26013121,16.4853558 C7.06986798,16.4853558 6.79833228,16.5528457 6.4455241,16.6878255 L6.44552409,16.6878254 C6.25551356,16.760521 6.0425482,16.6654184 5.96985266,16.4754079 C5.95377551,16.4333856 5.94553286,16.3887736 5.94553286,16.3437809 L5.94553286,-0.123302059 L5.94553284,-0.123302059 C5.94553284,-0.280841511 6.0457164,-0.420942838 6.1947938,-0.471880128 Z" id="Rectangle-2-Copy" transform="translate(8.231815, 7.949440) rotate(-45.000000) translate(-8.231815, -7.949440) "></path>
                            <path d="M16.8798564,15.0204646 L17.6615995,16.557259 L17.6615995,16.557259 C17.7538392,16.7385888 17.6816173,16.9603607 17.5002875,17.0526003 C17.4795955,17.063126 17.4579548,17.071672 17.4356543,17.0781243 C17.0580812,17.1873694 16.7598326,17.241992 16.5409083,17.241992 C16.3233005,17.241992 16.0311703,17.1880243 15.6645178,17.0800891 L15.6645178,17.0800891 C15.4693564,17.0226375 15.3577206,16.8178542 15.4151722,16.6226928 C15.4215666,16.6009713 15.4299502,16.5798857 15.4402165,16.5597036 L16.2232031,15.0204646 L16.2232031,15.0204646 C16.3154427,14.8391348 16.5372146,14.7669129 16.7185444,14.8591525 C16.7880301,14.8944988 16.8445102,14.9509789 16.8798564,15.0204646 Z" id="Triangle-4" transform="translate(16.550898, 16.033375) rotate(-225.000000) translate(-16.550898, -16.033375) "></path>
                        </g>
                    </g>
                    <ellipse id="Oval-4-Copy-2" stroke="#F0C830" stroke-width="2.45330641" cx="40.9090909" cy="40.9285714" rx="39.6824377" ry="39.7019182"></ellipse>
                </g>
                <g id="design-icon" filter="url(#filter-4)" transform="translate(0.000000, 109.142857)">
                    <g id="icon_design-copy" transform="translate(27.272727, 27.285714)" fill="#E28633">
                        <path d="M10.3661372,2.04449824 L10.3661372,25.4322533 L18.3717679,25.4322533 L18.3717679,2.04449824 L10.3661372,2.04449824 Z M10.3661372,0.627058536 L18.3717679,0.627058536 C19.1542257,0.627058536 19.788533,1.26166791 19.788533,2.04449824 L19.788533,25.4322533 C19.788533,26.2150837 19.1542257,26.849693 18.3717679,26.849693 L10.3661372,26.849693 C9.58367948,26.849693 8.94937216,26.2150837 8.94937216,25.4322533 L8.94937216,2.04449824 C8.94937216,1.26166791 9.58367948,0.627058536 10.3661372,0.627058536 Z" id="Rectangle-2" fill-rule="nonzero" transform="translate(14.368953, 13.738376) rotate(45.000000) translate(-14.368953, -13.738376) "></path>
                        <path d="M6.71514428,15.3842575 L9.43094957,18.0478564 C9.71314661,18.3246287 10.1706784,18.3246287 10.4528755,18.0478564 C10.7350725,17.7710841 10.7350725,17.3223475 10.4528755,17.0455752 L7.73707017,14.3819763 C7.45487313,14.105204 6.99734132,14.105204 6.71514428,14.3819763 C6.43294724,14.6587486 6.43294724,15.1074852 6.71514428,15.3842575 Z" id="Line" fill-rule="nonzero"></path>
                        <path d="M17.5543051,4.75345972 L20.2701104,7.41705862 C20.5523075,7.69383094 21.0098393,7.69383094 21.2920363,7.41705862 C21.5742333,7.1402863 21.5742333,6.69154971 21.2920363,6.41477739 L18.576231,3.7511785 C18.294034,3.47440618 17.8365022,3.47440618 17.5543051,3.7511785 C17.2721081,4.02795081 17.2721081,4.4766874 17.5543051,4.75345972 Z" id="Line-Copy-2" fill-rule="nonzero"></path>
                        <path d="M4.18600675,17.5104171 L6.90181204,20.1740159 C7.18400909,20.4507883 7.64154089,20.4507883 7.92373793,20.1740159 C8.20593497,19.8972436 8.20593497,19.448507 7.92373793,19.1717347 L5.20793264,16.5081358 C4.9257356,16.2313635 4.4682038,16.2313635 4.18600675,16.5081358 C3.90380971,16.7849081 3.90380971,17.2336447 4.18600675,17.5104171 Z" id="Line-Copy" fill-rule="nonzero"></path>
                        <path d="M15.0251676,6.87961928 L17.7409729,9.54321817 C18.0231699,9.81999049 18.4807017,9.81999049 18.7628988,9.54321817 C19.0450958,9.26644585 19.0450958,8.81770926 18.7628988,8.54093695 L16.0470935,5.87733805 C15.7648964,5.60056573 15.3073646,5.60056573 15.0251676,5.87733805 C14.7429706,6.15411037 14.7429706,6.60284696 15.0251676,6.87961928 Z" id="Line-Copy-3" fill-rule="nonzero"></path>
                        <g id="Pencil">
                            <path d="M9.30483547,-0.678426426 C10.7970876,-1.19547384 11.9140935,-1.45399755 12.655853,-1.45399755 C13.3954343,-1.45399755 14.4405173,-1.19698998 15.791102,-0.68297485 L15.791102,-0.682974847 C15.9284277,-0.630710457 16.0191933,-0.499049419 16.0191933,-0.352114352 L16.0191933,25.0731647 L16.0191932,25.0731647 C16.0191932,25.2686804 15.8606965,25.4271772 15.6651808,25.4271772 C15.6171127,25.4271772 15.569548,25.4173881 15.5253864,25.3984067 C15.0301813,25.1855593 14.6452014,25.0791356 14.3704465,25.0791356 C14.0374497,25.0791356 13.5290392,25.2354604 12.8452151,25.5481099 L12.8452151,25.5481099 C12.7389559,25.5966924 12.6155686,25.5897166 12.5154622,25.5294671 C11.9287308,25.1763397 11.4454228,24.9997759 11.0655382,24.9997759 C10.7292689,24.9997759 10.2260334,25.1381238 9.55583149,25.4148196 L9.55583149,25.4148196 C9.37511182,25.4894305 9.1681255,25.4034124 9.09351459,25.2226927 C9.07582644,25.1798491 9.06672402,25.133949 9.06672402,25.0875977 L9.06672402,-0.343924131 L9.06672402,-0.343924131 C9.06672402,-0.49476679 9.16230598,-0.629041674 9.30483547,-0.678426426 Z" id="Rectangle-2-Copy" transform="translate(12.542959, 12.086888) rotate(-45.000000) translate(-12.542959, -12.086888) "></path>
                            <path d="M25.5672431,22.636953 L27.0508622,25.5471514 L27.0508622,25.5471514 C27.1396624,25.7213378 27.0704432,25.9345306 26.8962568,26.0233309 C26.8783337,26.0324681 26.8596643,26.0400608 26.8404514,26.0460267 C26.1493765,26.2606162 25.6144597,26.3679109 25.2357011,26.3679109 C24.8580614,26.3679109 24.3328125,26.2612492 23.6599544,26.0479258 L23.6599544,26.0479258 C23.4735811,25.9888378 23.3703959,25.7898522 23.4294839,25.6034789 C23.4353516,25.5849712 23.4427319,25.5669776 23.4515502,25.54968 L24.9364583,22.636953 L24.9364583,22.636953 C25.0252586,22.4627666 25.2384513,22.3935474 25.4126377,22.4823477 C25.4791951,22.5162786 25.5333122,22.5703957 25.5672431,22.636953 Z" id="Triangle-4" transform="translate(25.251851, 24.412070) rotate(-225.000000) translate(-25.251851, -24.412070) "></path>
                        </g>
                    </g>
                    <ellipse id="Oval-4-Copy-3" stroke="#E28633" stroke-width="2.45330641" cx="40.9090909" cy="40.9285714" rx="39.6824377" ry="39.7019182"></ellipse>
                </g>
                <g id="production-icon" filter="url(#filter-5)" transform="translate(109.090909, 109.142857)">
                    <g id="icon_production-copy" transform="translate(23.636364, 27.285714)" fill="#E55749">
                        <path d="M13.2705858,23.5146543 L20.142916,23.5146543 L20.142916,23.5146543 C20.3311388,23.5146543 20.4890854,23.6565525 20.5091759,23.8437 C20.5936851,24.6309183 20.7224025,25.2195809 20.8953281,25.6096876 C21.0296645,25.9127402 21.2678961,26.27016 21.6100228,26.681947 L21.6100228,26.681947 C21.7400323,26.8384276 21.7185731,27.0706737 21.5620925,27.2006832 C21.4959543,27.2556331 21.4126765,27.2857143 21.3266896,27.2857143 L12.3315336,27.2857143 L12.3315336,27.2857143 C12.1280916,27.2857143 11.9631693,27.120792 11.9631693,26.91735 C11.9631693,26.8558722 11.978556,26.7953721 12.007927,26.7413641 C12.2704211,26.2586841 12.4468444,25.8814586 12.5371968,25.6096876 C12.6464356,25.2811087 12.7696391,24.6862378 12.9068072,23.825075 L12.9068072,23.825075 C12.93529,23.6462557 13.0895122,23.5146543 13.2705858,23.5146543 Z" id="Rectangle-3"></path>
                        <path d="M23.472635,17.1588764 L23.472635,17.1588764 L23.472635,17.1588764 C23.9228144,17.5473618 24.6007614,17.5055545 24.9997974,17.0647 L35.9682883,4.9467256 L35.9682883,4.9467256 C36.6394371,4.20524126 36.5824189,3.06007581 35.8409346,2.38892698 C35.8034493,2.35499743 35.7645594,2.32265268 35.7243672,2.29197774 L35.7243672,2.29197774 L35.7243672,2.29197774 C34.867978,1.63837596 33.6438884,1.80276768 32.9902866,2.65915691 C32.9865393,2.66406689 32.9828153,2.66899463 32.9791148,2.67393998 L23.3037252,15.6040832 L23.3037252,15.6040832 C22.942916,16.0862668 23.0166982,16.7654225 23.472635,17.1588764 Z" id="Path-3" transform="translate(29.755579, 9.658360) rotate(14.000000) translate(-29.755579, -9.658360) "></path>
                        <path d="M15.4625428,18.5337505 C19.4479058,18.9145529 21.5313548,18.4964826 21.7128898,17.2795395 C21.9851924,15.4541248 19.1308258,14.6308818 18.4646904,15.4541248 C17.798555,16.2773678 17.8736395,17.4475975 17.0302018,17.8802295 C16.4679099,18.1686508 15.9453569,18.3864911 15.4625428,18.5337505 Z" id="Path-2"></path>
                        <path d="M1.84275184,1.89391014 L1.84275184,20.8330116 L31.5897731,20.8330116 L31.5897731,1.89391014 L1.84275184,1.89391014 Z M1.47420147,0.0502808003 L31.9583234,0.0502808003 C32.7725024,0.0502808003 33.4325249,0.710617579 33.4325249,1.52518428 L33.4325249,21.2017375 C33.4325249,22.0163041 32.7725024,22.6766409 31.9583234,22.6766409 L1.47420147,22.6766409 C0.660022482,22.6766409 9.36849173e-16,22.0163041 -1.33226763e-15,21.2017375 L-6.05576195e-16,1.52518428 C-4.63053887e-16,0.710617579 0.660022482,0.0502808003 1.47420147,0.0502808003 Z" id="Rectangle-8" fill-rule="nonzero"></path>
                        <path d="M15.335912,11.2810139 C15.3599718,11.0880331 15.3780155,10.8950516 15.3780155,10.6900099 C15.3780155,10.4849681 15.3599706,10.2919867 15.335912,10.0990059 L16.6050398,9.10394794 C16.7193217,9.01348833 16.7493953,8.85066035 16.6772181,8.71798576 L15.4742537,6.63137886 C15.4020754,6.49870456 15.239676,6.45045907 15.1073492,6.49870456 L13.6096586,7.10177013 C13.2968876,6.86054385 12.9600579,6.66153225 12.5931533,6.51076586 L12.36459,4.91264203 C12.3465452,4.767906 12.2202339,4.65935416 12.0698633,4.65935416 L9.66393447,4.65935416 C9.51356391,4.65935416 9.38725262,4.767906 9.36920831,4.91264174 L9.140645,6.51076557 C8.77374106,6.66153197 8.43691076,6.86657435 8.12414002,7.10176985 L6.62644915,6.49870427 C6.48810824,6.44442827 6.331723,6.49870427 6.25954492,6.63137857 L5.05658049,8.71798519 C4.97838773,8.85065977 5.01447677,9.01348718 5.12875829,9.10394736 L6.39788584,10.0990059 C6.37382658,10.2919867 6.35578199,10.4909983 6.35578199,10.6900099 C6.35578199,10.8890215 6.37382658,11.0880331 6.39788584,11.2810139 L5.12875843,12.2760718 C5.01447677,12.3665314 4.98440269,12.5293594 5.05658049,12.662034 L6.25954492,14.7486409 C6.33172272,14.8813149 6.49412291,14.9295601 6.62644915,14.8813149 L8.12413974,14.2782493 C8.43691048,14.5194753 8.77374048,14.7184869 9.14064443,14.8692533 L9.36920774,16.4673769 C9.38725205,16.6121124 9.51356333,16.7206644 9.66393389,16.7206644 L12.0698627,16.7206644 C12.2202333,16.7206644 12.3465446,16.6121124 12.3645889,16.4673769 L12.5931522,14.8692533 C12.9600561,14.7184869 13.2968865,14.5134445 13.6096574,14.2782493 L15.107348,14.8813149 C15.2456887,14.9355909 15.4020742,14.8813149 15.4742526,14.7486409 L16.677217,12.662034 C16.7493953,12.5293594 16.7193206,12.366532 16.6050386,12.2760718 L15.3359107,11.2810139 L15.335912,11.2810139 Z M10.8668989,13.6302388 C9.24982917,13.6302388 7.93438964,12.3113363 7.93438964,10.6900099 C7.93438964,9.06868335 9.24982917,7.74978103 10.8668989,7.74978103 C12.4839685,7.74978103 13.7994082,9.06868335 13.7994082,10.6900099 C13.7994082,12.3113363 12.4839685,13.6302388 10.8668989,13.6302388 Z" id="Fill-2"></path>
                    </g>
                    <ellipse id="Oval-4-Copy-4" stroke="#E55749" stroke-width="2.45330641" cx="40.9090909" cy="40.9285714" rx="39.6824377" ry="39.7019182"></ellipse>
                </g>
                <g id="launch-icon" filter="url(#filter-6)" transform="translate(218.181818, 109.142857)">
                    <g id="icon_launch-copy" transform="translate(22.727273, 22.738095)" fill="#9E63B5">
                        <path d="M3.92728096,20.2450338 L3.92728096,20.2450338 C3.88171174,20.2311856 3.83843286,20.2106955 3.79884001,20.1842242 C3.57634825,20.0354688 3.51657316,19.7345134 3.66532861,19.5120216 L3.66532862,19.5120217 C5.25343333,17.1367123 6.52984274,15.6119724 7.49455686,14.9378019 C8.53102653,14.2134865 10.4629451,13.593781 13.2903125,13.0786855 C20.2937014,4.1248771 27.8980723,-0.14241315 36.1034252,0.276814803 C36.8565524,6.75424969 32.9419454,14.2113019 24.3596044,22.6479713 C24.1624546,25.2178615 23.7095746,27.1149562 23.0009645,28.3392552 C22.3451225,29.4723842 20.9444763,30.9375399 18.7990257,32.7347223 C18.7556453,32.7710609 18.7062353,32.7995205 18.6530354,32.8188111 C18.4014266,32.910046 18.1234969,32.7800374 18.032262,32.5284286 L18.032262,32.5284286 L16.057242,27.0816954 C14.6914588,27.6480786 13.4998254,27.5854532 12.4823419,26.8938191 L10.6456596,28.8286936 C10.4628882,29.0212363 10.1592212,29.0308804 9.96460052,28.8503232 L9.96460052,28.8503232 L8.47185412,27.4654443 C8.2835073,27.2907076 8.26426274,26.9993489 8.42799044,26.8013574 L10.0652924,24.8214113 C9.3443293,24.2446858 9.13759863,23.2781673 9.44510035,21.9218559 L3.92728096,20.2450338 Z M22.6682409,16.3247863 C24.2331563,16.3247863 25.501771,15.0718396 25.501771,13.5262515 C25.501771,11.9806634 24.2331563,10.7277167 22.6682409,10.7277167 C21.1033254,10.7277167 19.8347107,11.9806634 19.8347107,13.5262515 C19.8347107,15.0718396 21.1033254,16.3247863 22.6682409,16.3247863 Z M28.8075561,9.32844933 C29.8508331,9.32844933 30.6965762,8.49315152 30.6965762,7.46275946 C30.6965762,6.4323674 29.8508331,5.5970696 28.8075561,5.5970696 C27.7642791,5.5970696 26.918536,6.4323674 26.918536,7.46275946 C26.918536,8.49315152 27.7642791,9.32844933 28.8075561,9.32844933 Z" id="Combined-Shape"></path>
                        <path d="M6.37993737,29.6954441 L2.36576972,34.1264575 C2.01794385,34.5104029 2.05111663,35.1001383 2.43986318,35.4436683 C2.82860973,35.7871984 3.42571965,35.7544353 3.77354551,35.37049 L7.78771317,30.9394765 C8.13553903,30.5555312 8.10236625,29.9657958 7.7136197,29.6222657 C7.32487315,29.2787357 6.72776323,29.3114987 6.37993737,29.6954441 Z" id="Line" fill-rule="nonzero"></path>
                        <path d="M4.4909173,25.0312194 L0.476749645,29.4622329 C0.128923782,29.8461782 0.162096555,30.4359136 0.550843108,30.7794437 C0.93958966,31.1229737 1.53669958,31.0902107 1.88452544,30.7062653 L5.89869309,26.2752519 C6.24651896,25.8913065 6.21334618,25.3015711 5.82459963,24.9580411 C5.43585308,24.614511 4.83874316,24.6472741 4.4909173,25.0312194 Z" id="Line-Copy-4" fill-rule="nonzero"></path>
                        <path d="M12.5192526,30.1618666 L8.50508495,34.59288 C8.15725908,34.9768254 8.19043186,35.5665607 8.57917841,35.9100908 C8.96792496,36.2536209 9.56503488,36.2208578 9.91286074,35.8369124 L13.9270284,31.405899 C14.2748543,31.0219536 14.2416815,30.4322183 13.8529349,30.0886882 C13.4641884,29.7451581 12.8670785,29.7779212 12.5192526,30.1618666 Z" id="Line-Copy-5" fill-rule="nonzero"></path>
                    </g>
                    <ellipse id="Oval-4-Copy-5" stroke="#9E63B5" stroke-width="2.45330641" cx="40.9090909" cy="40.9285714" rx="39.6824377" ry="39.7019182"></ellipse>
                </g>
            </g>
        </g>
    </g>
</svg>