<?xml version="1.0" encoding="UTF-8"?>
<svg width="66px" height="56px" viewBox="0 0 66 56" version="1.1" xmlns="http://www.w3.org/2000/svg" xmlns:xlink="http://www.w3.org/1999/xlink">
    <!-- Generator: Sketch 44 (41411) - http://www.bohemiancoding.com/sketch -->
    <title>Arrow_prev</title>
    <desc>Created with Sketch.</desc>
    <defs></defs>
    <g id="Page-1" stroke="none" stroke-width="1" fill="none" fill-rule="evenodd">
        <g id="Home" transform="translate(-1149.000000, -468.000000)" fill-rule="nonzero" fill="#FFFFFF">
            <path d="M1193.57458,502.000035 L1180.94555,513.577208 C1178.50289,515.816422 1178.33796,519.61183 1180.57717,522.05449 C1182.81639,524.49715 1186.61179,524.662076 1189.05445,522.422862 L1211.44615,501.896143 C1211.617,501.739523 1211.78097,501.575552 1211.93758,501.404695 C1214.92304,498.147671 1214.70289,493.087137 1211.44587,490.101676 L1189.05424,469.577013 C1186.61147,467.337917 1182.81607,467.503026 1180.57698,469.945794 C1178.33788,472.388562 1178.50299,476.183963 1180.94576,478.423058 L1193.5758,490.000035 L1155,490.000035 C1151.68629,490.000035 1149,492.686327 1149,496.000035 C1149,499.313744 1151.68629,502.000035 1155,502.000035 L1193.57458,502.000035 Z" id="Arrow_prev" transform="translate(1181.520131, 496.000035) scale(-1, 1) translate(-1181.520131, -496.000035) "></path>
        </g>
    </g>
</svg>